%TF.GenerationSoftware,KiCad,Pcbnew,7.99.0-4047-gfc85112a72*%
%TF.CreationDate,2024-01-03T16:22:38+03:00*%
%TF.ProjectId,Prj 3 MCU DataLogger,50726a20-3320-44d4-9355-20446174614c,Version-1*%
%TF.SameCoordinates,Original*%
%TF.FileFunction,Soldermask,Top*%
%TF.FilePolarity,Negative*%
%FSLAX46Y46*%
G04 Gerber Fmt 4.6, Leading zero omitted, Abs format (unit mm)*
G04 Created by KiCad (PCBNEW 7.99.0-4047-gfc85112a72) date 2024-01-03 16:22:38*
%MOMM*%
%LPD*%
G01*
G04 APERTURE LIST*
G04 Aperture macros list*
%AMRoundRect*
0 Rectangle with rounded corners*
0 $1 Rounding radius*
0 $2 $3 $4 $5 $6 $7 $8 $9 X,Y pos of 4 corners*
0 Add a 4 corners polygon primitive as box body*
4,1,4,$2,$3,$4,$5,$6,$7,$8,$9,$2,$3,0*
0 Add four circle primitives for the rounded corners*
1,1,$1+$1,$2,$3*
1,1,$1+$1,$4,$5*
1,1,$1+$1,$6,$7*
1,1,$1+$1,$8,$9*
0 Add four rect primitives between the rounded corners*
20,1,$1+$1,$2,$3,$4,$5,0*
20,1,$1+$1,$4,$5,$6,$7,0*
20,1,$1+$1,$6,$7,$8,$9,0*
20,1,$1+$1,$8,$9,$2,$3,0*%
G04 Aperture macros list end*
%ADD10R,1.700000X1.700000*%
%ADD11O,1.700000X1.700000*%
%ADD12RoundRect,0.243750X0.243750X0.456250X-0.243750X0.456250X-0.243750X-0.456250X0.243750X-0.456250X0*%
%ADD13RoundRect,0.250000X-0.262500X-0.450000X0.262500X-0.450000X0.262500X0.450000X-0.262500X0.450000X0*%
%ADD14RoundRect,0.250000X0.250000X0.475000X-0.250000X0.475000X-0.250000X-0.475000X0.250000X-0.475000X0*%
%ADD15RoundRect,0.052780X-0.784220X-0.324220X0.784220X-0.324220X0.784220X0.324220X-0.784220X0.324220X0*%
%ADD16RoundRect,0.135720X-0.241280X-0.701280X0.241280X-0.701280X0.241280X0.701280X-0.241280X0.701280X0*%
%ADD17R,3.500000X2.400000*%
%ADD18C,2.100000*%
%ADD19RoundRect,0.250000X-0.250000X-0.475000X0.250000X-0.475000X0.250000X0.475000X-0.250000X0.475000X0*%
%ADD20R,2.400000X3.500000*%
%ADD21RoundRect,0.150000X-0.650000X-0.150000X0.650000X-0.150000X0.650000X0.150000X-0.650000X0.150000X0*%
%ADD22RoundRect,0.250000X0.262500X0.450000X-0.262500X0.450000X-0.262500X-0.450000X0.262500X-0.450000X0*%
%ADD23RoundRect,0.055580X-1.031420X-0.341420X1.031420X-0.341420X1.031420X0.341420X-1.031420X0.341420X0*%
%ADD24RoundRect,0.150000X0.650000X0.150000X-0.650000X0.150000X-0.650000X-0.150000X0.650000X-0.150000X0*%
G04 APERTURE END LIST*
D10*
%TO.C,J4*%
X134264400Y-78282800D03*
D11*
X136804400Y-78282800D03*
X134264400Y-80822800D03*
X136804400Y-80822800D03*
X134264400Y-83362800D03*
X136804400Y-83362800D03*
%TD*%
D10*
%TO.C,J2*%
X121564400Y-99491800D03*
D11*
X124104400Y-99491800D03*
X126644400Y-99491800D03*
X129184400Y-99491800D03*
%TD*%
D12*
%TO.C,D2*%
X122474200Y-73660000D03*
X120599200Y-73660000D03*
%TD*%
D13*
%TO.C,R6*%
X120675000Y-78460600D03*
X122500000Y-78460600D03*
%TD*%
D14*
%TO.C,C2*%
X122362000Y-92456000D03*
X120462000Y-92456000D03*
%TD*%
%TO.C,C1*%
X106537800Y-73177400D03*
X104637800Y-73177400D03*
%TD*%
D13*
%TO.C,R7*%
X125374000Y-78308200D03*
X127199000Y-78308200D03*
%TD*%
D12*
%TO.C,D1*%
X127224000Y-73761600D03*
X125349000Y-73761600D03*
%TD*%
D15*
%TO.C,U4*%
X108790200Y-79602000D03*
X108790200Y-80402000D03*
X108790200Y-81202000D03*
X108790200Y-82002000D03*
X108790200Y-82802000D03*
X108790200Y-83602000D03*
X108790200Y-84402000D03*
X108790200Y-85202000D03*
D16*
X110160200Y-86572000D03*
X110960200Y-86572000D03*
X111760200Y-86572000D03*
X112560200Y-86572000D03*
X113360200Y-86572000D03*
X114160200Y-86572000D03*
X114960200Y-86572000D03*
X115760200Y-86572000D03*
D15*
X117130200Y-85202000D03*
X117130200Y-84402000D03*
X117130200Y-83602000D03*
X117130200Y-82802000D03*
X117130200Y-82002000D03*
X117130200Y-81202000D03*
X117130200Y-80402000D03*
X117130200Y-79602000D03*
D16*
X115760200Y-78232000D03*
X114960200Y-78232000D03*
X114160200Y-78232000D03*
X113360200Y-78232000D03*
X112560200Y-78232000D03*
X111760200Y-78232000D03*
X110960200Y-78232000D03*
X110160200Y-78232000D03*
%TD*%
D17*
%TO.C,Y1*%
X114182200Y-90830400D03*
X108982200Y-90830400D03*
%TD*%
D18*
%TO.C,H1*%
X87807800Y-71424800D03*
%TD*%
D10*
%TO.C,J1*%
X136474200Y-95189200D03*
D11*
X136474200Y-92649200D03*
X136474200Y-90109200D03*
X136474200Y-87569200D03*
%TD*%
D19*
%TO.C,C4*%
X112765800Y-73228200D03*
X114665800Y-73228200D03*
%TD*%
D13*
%TO.C,R4*%
X125270500Y-87122000D03*
X127095500Y-87122000D03*
%TD*%
%TO.C,R2*%
X102236900Y-95935800D03*
X104061900Y-95935800D03*
%TD*%
D14*
%TO.C,C5*%
X110652600Y-73177400D03*
X108752600Y-73177400D03*
%TD*%
D10*
%TO.C,BT1*%
X90855800Y-82732800D03*
D11*
X90855800Y-80192800D03*
%TD*%
D10*
%TO.C,J3*%
X94945200Y-99669600D03*
D11*
X97485200Y-99669600D03*
X100025200Y-99669600D03*
X102565200Y-99669600D03*
X105105200Y-99669600D03*
X107645200Y-99669600D03*
X110185200Y-99669600D03*
X112725200Y-99669600D03*
X115265200Y-99669600D03*
%TD*%
D20*
%TO.C,Y2*%
X90881200Y-93938400D03*
X90881200Y-88738400D03*
%TD*%
D18*
%TO.C,H4*%
X138633200Y-101904800D03*
%TD*%
D21*
%TO.C,U1*%
X97949200Y-83820000D03*
X97949200Y-85090000D03*
X97949200Y-86360000D03*
X97949200Y-87630000D03*
X105149200Y-87630000D03*
X105149200Y-86360000D03*
X105149200Y-85090000D03*
X105149200Y-83820000D03*
%TD*%
D18*
%TO.C,H2*%
X87807800Y-101904800D03*
%TD*%
D22*
%TO.C,R3*%
X122730900Y-83007200D03*
X120905900Y-83007200D03*
%TD*%
D13*
%TO.C,R5*%
X125350900Y-82931000D03*
X127175900Y-82931000D03*
%TD*%
D18*
%TO.C,H3*%
X138633200Y-71424800D03*
%TD*%
D22*
%TO.C,R1*%
X98169100Y-95631000D03*
X96344100Y-95631000D03*
%TD*%
D23*
%TO.C,U3*%
X96760600Y-89611200D03*
X96760600Y-90881200D03*
X96760600Y-92151200D03*
X96760600Y-93421200D03*
X101710600Y-93421200D03*
X101710600Y-92151200D03*
X101710600Y-90881200D03*
X101710600Y-89611200D03*
%TD*%
D24*
%TO.C,U2*%
X104648000Y-80365600D03*
X104648000Y-79095600D03*
X104648000Y-77825600D03*
X104648000Y-76555600D03*
X97448000Y-76555600D03*
X97448000Y-77825600D03*
X97448000Y-79095600D03*
X97448000Y-80365600D03*
%TD*%
D14*
%TO.C,C3*%
X122334300Y-88366600D03*
X120434300Y-88366600D03*
%TD*%
M02*
