%TF.GenerationSoftware,KiCad,Pcbnew,7.99.0-4047-gfc85112a72*%
%TF.CreationDate,2024-01-03T16:22:38+03:00*%
%TF.ProjectId,Prj 3 MCU DataLogger,50726a20-3320-44d4-9355-20446174614c,Version-1*%
%TF.SameCoordinates,Original*%
%TF.FileFunction,Copper,L1,Top*%
%TF.FilePolarity,Positive*%
%FSLAX46Y46*%
G04 Gerber Fmt 4.6, Leading zero omitted, Abs format (unit mm)*
G04 Created by KiCad (PCBNEW 7.99.0-4047-gfc85112a72) date 2024-01-03 16:22:38*
%MOMM*%
%LPD*%
G01*
G04 APERTURE LIST*
G04 Aperture macros list*
%AMRoundRect*
0 Rectangle with rounded corners*
0 $1 Rounding radius*
0 $2 $3 $4 $5 $6 $7 $8 $9 X,Y pos of 4 corners*
0 Add a 4 corners polygon primitive as box body*
4,1,4,$2,$3,$4,$5,$6,$7,$8,$9,$2,$3,0*
0 Add four circle primitives for the rounded corners*
1,1,$1+$1,$2,$3*
1,1,$1+$1,$4,$5*
1,1,$1+$1,$6,$7*
1,1,$1+$1,$8,$9*
0 Add four rect primitives between the rounded corners*
20,1,$1+$1,$2,$3,$4,$5,0*
20,1,$1+$1,$4,$5,$6,$7,0*
20,1,$1+$1,$6,$7,$8,$9,0*
20,1,$1+$1,$8,$9,$2,$3,0*%
G04 Aperture macros list end*
%TA.AperFunction,ComponentPad*%
%ADD10R,1.700000X1.700000*%
%TD*%
%TA.AperFunction,ComponentPad*%
%ADD11O,1.700000X1.700000*%
%TD*%
%TA.AperFunction,SMDPad,CuDef*%
%ADD12RoundRect,0.243750X0.243750X0.456250X-0.243750X0.456250X-0.243750X-0.456250X0.243750X-0.456250X0*%
%TD*%
%TA.AperFunction,SMDPad,CuDef*%
%ADD13RoundRect,0.250000X-0.262500X-0.450000X0.262500X-0.450000X0.262500X0.450000X-0.262500X0.450000X0*%
%TD*%
%TA.AperFunction,SMDPad,CuDef*%
%ADD14RoundRect,0.250000X0.250000X0.475000X-0.250000X0.475000X-0.250000X-0.475000X0.250000X-0.475000X0*%
%TD*%
%TA.AperFunction,SMDPad,CuDef*%
%ADD15RoundRect,0.038500X-0.696500X-0.236500X0.696500X-0.236500X0.696500X0.236500X-0.696500X0.236500X0*%
%TD*%
%TA.AperFunction,SMDPad,CuDef*%
%ADD16RoundRect,0.099000X-0.176000X-0.636000X0.176000X-0.636000X0.176000X0.636000X-0.176000X0.636000X0*%
%TD*%
%TA.AperFunction,SMDPad,CuDef*%
%ADD17R,3.500000X2.400000*%
%TD*%
%TA.AperFunction,SMDPad,CuDef*%
%ADD18RoundRect,0.250000X-0.250000X-0.475000X0.250000X-0.475000X0.250000X0.475000X-0.250000X0.475000X0*%
%TD*%
%TA.AperFunction,SMDPad,CuDef*%
%ADD19R,2.400000X3.500000*%
%TD*%
%TA.AperFunction,SMDPad,CuDef*%
%ADD20RoundRect,0.150000X-0.650000X-0.150000X0.650000X-0.150000X0.650000X0.150000X-0.650000X0.150000X0*%
%TD*%
%TA.AperFunction,SMDPad,CuDef*%
%ADD21RoundRect,0.250000X0.262500X0.450000X-0.262500X0.450000X-0.262500X-0.450000X0.262500X-0.450000X0*%
%TD*%
%TA.AperFunction,SMDPad,CuDef*%
%ADD22RoundRect,0.041300X-0.943700X-0.253700X0.943700X-0.253700X0.943700X0.253700X-0.943700X0.253700X0*%
%TD*%
%TA.AperFunction,SMDPad,CuDef*%
%ADD23RoundRect,0.150000X0.650000X0.150000X-0.650000X0.150000X-0.650000X-0.150000X0.650000X-0.150000X0*%
%TD*%
%TA.AperFunction,ViaPad*%
%ADD24C,0.900000*%
%TD*%
%TA.AperFunction,ViaPad*%
%ADD25C,0.800000*%
%TD*%
%TA.AperFunction,Conductor*%
%ADD26C,0.350000*%
%TD*%
%TA.AperFunction,Conductor*%
%ADD27C,0.250000*%
%TD*%
G04 APERTURE END LIST*
D10*
%TO.P,J4,1,Pin_1*%
%TO.N,/MISO*%
X134264400Y-78282800D03*
D11*
%TO.P,J4,2,Pin_2*%
%TO.N,/Vcc*%
X136804400Y-78282800D03*
%TO.P,J4,3,Pin_3*%
%TO.N,/SCK*%
X134264400Y-80822800D03*
%TO.P,J4,4,Pin_4*%
%TO.N,/MOSI*%
X136804400Y-80822800D03*
%TO.P,J4,5,Pin_5*%
%TO.N,/RESET*%
X134264400Y-83362800D03*
%TO.P,J4,6,Pin_6*%
%TO.N,GND*%
X136804400Y-83362800D03*
%TD*%
D10*
%TO.P,J2,1*%
%TO.N,GND*%
X121564400Y-99491800D03*
D11*
%TO.P,J2,2*%
%TO.N,/Vcc*%
X124104400Y-99491800D03*
%TO.P,J2,3*%
%TO.N,/RX*%
X126644400Y-99491800D03*
%TO.P,J2,4*%
%TO.N,/TX*%
X129184400Y-99491800D03*
%TD*%
D12*
%TO.P,D2,1,K*%
%TO.N,Net-(D2-K)*%
X122474200Y-73660000D03*
%TO.P,D2,2,A*%
%TO.N,/Vcc*%
X120599200Y-73660000D03*
%TD*%
D13*
%TO.P,R6,1*%
%TO.N,Net-(D2-K)*%
X120675000Y-78460600D03*
%TO.P,R6,2*%
%TO.N,GND*%
X122500000Y-78460600D03*
%TD*%
D14*
%TO.P,C2,1*%
%TO.N,GND*%
X122362000Y-92456000D03*
%TO.P,C2,2*%
%TO.N,Net-(U4-PB7)*%
X120462000Y-92456000D03*
%TD*%
%TO.P,C1,1*%
%TO.N,/Vcc*%
X106537800Y-73177400D03*
%TO.P,C1,2*%
%TO.N,GND*%
X104637800Y-73177400D03*
%TD*%
D13*
%TO.P,R7,1*%
%TO.N,GND*%
X125374000Y-78308200D03*
%TO.P,R7,2*%
%TO.N,Net-(D1-K)*%
X127199000Y-78308200D03*
%TD*%
D12*
%TO.P,D1,1,K*%
%TO.N,Net-(D1-K)*%
X127224000Y-73761600D03*
%TO.P,D1,2,A*%
%TO.N,/SCK*%
X125349000Y-73761600D03*
%TD*%
D15*
%TO.P,U4,1,PD3*%
%TO.N,/D3*%
X108790200Y-79602000D03*
%TO.P,U4,2,PD4*%
%TO.N,/D4*%
X108790200Y-80402000D03*
%TO.P,U4,3,GND*%
%TO.N,GND*%
X108790200Y-81202000D03*
%TO.P,U4,4,VCC*%
%TO.N,/Vcc*%
X108790200Y-82002000D03*
%TO.P,U4,5,GND*%
%TO.N,GND*%
X108790200Y-82802000D03*
%TO.P,U4,6,VCC*%
%TO.N,unconnected-(U4-VCC-Pad6)*%
X108790200Y-83602000D03*
%TO.P,U4,7,PB6*%
%TO.N,Net-(U4-PB6)*%
X108790200Y-84402000D03*
%TO.P,U4,8,PB7*%
%TO.N,Net-(U4-PB7)*%
X108790200Y-85202000D03*
D16*
%TO.P,U4,9,PD5*%
%TO.N,/D5*%
X110160200Y-86572000D03*
%TO.P,U4,10,PD6*%
%TO.N,/D6*%
X110960200Y-86572000D03*
%TO.P,U4,11,PD7*%
%TO.N,/D7*%
X111760200Y-86572000D03*
%TO.P,U4,12,PB0*%
%TO.N,/D8*%
X112560200Y-86572000D03*
%TO.P,U4,13,PB1*%
%TO.N,unconnected-(U4-PB1-Pad13)*%
X113360200Y-86572000D03*
%TO.P,U4,14,PB2*%
%TO.N,unconnected-(U4-PB2-Pad14)*%
X114160200Y-86572000D03*
%TO.P,U4,15,PB3*%
%TO.N,/MOSI*%
X114960200Y-86572000D03*
%TO.P,U4,16,PB4*%
%TO.N,/MISO*%
X115760200Y-86572000D03*
D15*
%TO.P,U4,17,PB5*%
%TO.N,/SCK*%
X117130200Y-85202000D03*
%TO.P,U4,18,AVCC*%
%TO.N,/Vcc*%
X117130200Y-84402000D03*
%TO.P,U4,19,ADC6*%
%TO.N,unconnected-(U4-ADC6-Pad19)*%
X117130200Y-83602000D03*
%TO.P,U4,20,AREF*%
%TO.N,Net-(U4-AREF)*%
X117130200Y-82802000D03*
%TO.P,U4,21,GND*%
%TO.N,GND*%
X117130200Y-82002000D03*
%TO.P,U4,22,ADC7*%
%TO.N,unconnected-(U4-ADC7-Pad22)*%
X117130200Y-81202000D03*
%TO.P,U4,23,PC0*%
%TO.N,unconnected-(U4-PC0-Pad23)*%
X117130200Y-80402000D03*
%TO.P,U4,24,PC1*%
%TO.N,unconnected-(U4-PC1-Pad24)*%
X117130200Y-79602000D03*
D16*
%TO.P,U4,25,PC2*%
%TO.N,unconnected-(U4-PC2-Pad25)*%
X115760200Y-78232000D03*
%TO.P,U4,26,PC3*%
%TO.N,unconnected-(U4-PC3-Pad26)*%
X114960200Y-78232000D03*
%TO.P,U4,27,PC4*%
%TO.N,/SDA*%
X114160200Y-78232000D03*
%TO.P,U4,28,PC5*%
%TO.N,/SCK*%
X113360200Y-78232000D03*
%TO.P,U4,29,PC6/~{RESET}*%
%TO.N,/RESET*%
X112560200Y-78232000D03*
%TO.P,U4,30,PD0*%
%TO.N,/RX*%
X111760200Y-78232000D03*
%TO.P,U4,31,PD1*%
%TO.N,/TX*%
X110960200Y-78232000D03*
%TO.P,U4,32,PD2*%
%TO.N,/D2*%
X110160200Y-78232000D03*
%TD*%
D17*
%TO.P,Y1,1,1*%
%TO.N,Net-(U4-PB7)*%
X114182200Y-90830400D03*
%TO.P,Y1,2,2*%
%TO.N,Net-(U4-PB6)*%
X108982200Y-90830400D03*
%TD*%
D10*
%TO.P,J1,1*%
%TO.N,GND*%
X136474200Y-95189200D03*
D11*
%TO.P,J1,2*%
%TO.N,/Vcc*%
X136474200Y-92649200D03*
%TO.P,J1,3*%
%TO.N,/SDA*%
X136474200Y-90109200D03*
%TO.P,J1,4*%
%TO.N,/SCK*%
X136474200Y-87569200D03*
%TD*%
D18*
%TO.P,C4,1*%
%TO.N,GND*%
X112765800Y-73228200D03*
%TO.P,C4,2*%
%TO.N,Net-(U4-AREF)*%
X114665800Y-73228200D03*
%TD*%
D13*
%TO.P,R4,1*%
%TO.N,/Vcc*%
X125270500Y-87122000D03*
%TO.P,R4,2*%
%TO.N,/SDA*%
X127095500Y-87122000D03*
%TD*%
%TO.P,R2,1*%
%TO.N,/Vcc*%
X102236900Y-95935800D03*
%TO.P,R2,2*%
%TO.N,Net-(U3-SQW{slash}~INT)*%
X104061900Y-95935800D03*
%TD*%
D14*
%TO.P,C5,1*%
%TO.N,/Vcc*%
X110652600Y-73177400D03*
%TO.P,C5,2*%
%TO.N,GND*%
X108752600Y-73177400D03*
%TD*%
D10*
%TO.P,BT1,1,+*%
%TO.N,/Vcc*%
X90855800Y-82732800D03*
D11*
%TO.P,BT1,2,-*%
%TO.N,GND*%
X90855800Y-80192800D03*
%TD*%
D10*
%TO.P,J3,1*%
%TO.N,/D2*%
X94945200Y-99669600D03*
D11*
%TO.P,J3,2*%
%TO.N,/D3*%
X97485200Y-99669600D03*
%TO.P,J3,3*%
%TO.N,/D4*%
X100025200Y-99669600D03*
%TO.P,J3,4*%
%TO.N,/D5*%
X102565200Y-99669600D03*
%TO.P,J3,5*%
%TO.N,/D6*%
X105105200Y-99669600D03*
%TO.P,J3,6*%
%TO.N,/D7*%
X107645200Y-99669600D03*
%TO.P,J3,7*%
%TO.N,/D8*%
X110185200Y-99669600D03*
%TO.P,J3,8*%
%TO.N,GND*%
X112725200Y-99669600D03*
%TO.P,J3,9*%
%TO.N,/Vcc*%
X115265200Y-99669600D03*
%TD*%
D19*
%TO.P,Y2,1,1*%
%TO.N,Net-(U3-X2)*%
X90881200Y-93938400D03*
%TO.P,Y2,2,2*%
%TO.N,Net-(U3-X1)*%
X90881200Y-88738400D03*
%TD*%
D20*
%TO.P,U1,1,A0*%
%TO.N,/Vcc*%
X97949200Y-83820000D03*
%TO.P,U1,2,A1*%
X97949200Y-85090000D03*
%TO.P,U1,3,A2*%
X97949200Y-86360000D03*
%TO.P,U1,4,GND*%
%TO.N,GND*%
X97949200Y-87630000D03*
%TO.P,U1,5,SDA*%
%TO.N,/SDA*%
X105149200Y-87630000D03*
%TO.P,U1,6,SCL*%
%TO.N,/SCK*%
X105149200Y-86360000D03*
%TO.P,U1,7,WP*%
%TO.N,GND*%
X105149200Y-85090000D03*
%TO.P,U1,8,VCC*%
%TO.N,/Vcc*%
X105149200Y-83820000D03*
%TD*%
D21*
%TO.P,R3,1*%
%TO.N,/Vcc*%
X122730900Y-83007200D03*
%TO.P,R3,2*%
%TO.N,/SCK*%
X120905900Y-83007200D03*
%TD*%
D13*
%TO.P,R5,1*%
%TO.N,/Vcc*%
X125350900Y-82931000D03*
%TO.P,R5,2*%
%TO.N,/RESET*%
X127175900Y-82931000D03*
%TD*%
D21*
%TO.P,R1,1*%
%TO.N,/Vcc*%
X98169100Y-95631000D03*
%TO.P,R1,2*%
%TO.N,Net-(U3-~{INTA})*%
X96344100Y-95631000D03*
%TD*%
D22*
%TO.P,U3,1,X1*%
%TO.N,Net-(U3-X1)*%
X96760600Y-89611200D03*
%TO.P,U3,2,X2*%
%TO.N,Net-(U3-X2)*%
X96760600Y-90881200D03*
%TO.P,U3,3,~{INTA}*%
%TO.N,Net-(U3-~{INTA})*%
X96760600Y-92151200D03*
%TO.P,U3,4,GND*%
%TO.N,GND*%
X96760600Y-93421200D03*
%TO.P,U3,5,SDA*%
%TO.N,/SDA*%
X101710600Y-93421200D03*
%TO.P,U3,6,SCL*%
%TO.N,/SCK*%
X101710600Y-92151200D03*
%TO.P,U3,7,SQW/~INT*%
%TO.N,Net-(U3-SQW{slash}~INT)*%
X101710600Y-90881200D03*
%TO.P,U3,8,VCC*%
%TO.N,/Vcc*%
X101710600Y-89611200D03*
%TD*%
D23*
%TO.P,U2,1,A0*%
%TO.N,/Vcc*%
X104648000Y-80365600D03*
%TO.P,U2,2,A1*%
%TO.N,GND*%
X104648000Y-79095600D03*
%TO.P,U2,3,A2*%
%TO.N,/Vcc*%
X104648000Y-77825600D03*
%TO.P,U2,4,GND*%
%TO.N,GND*%
X104648000Y-76555600D03*
%TO.P,U2,5,SDA*%
%TO.N,/SDA*%
X97448000Y-76555600D03*
%TO.P,U2,6,SCL*%
%TO.N,/SCK*%
X97448000Y-77825600D03*
%TO.P,U2,7,WP*%
%TO.N,GND*%
X97448000Y-79095600D03*
%TO.P,U2,8,VCC*%
%TO.N,/Vcc*%
X97448000Y-80365600D03*
%TD*%
D14*
%TO.P,C3,1*%
%TO.N,GND*%
X122334300Y-88366600D03*
%TO.P,C3,2*%
%TO.N,Net-(U4-PB6)*%
X120434300Y-88366600D03*
%TD*%
D24*
%TO.N,/Vcc*%
X103529628Y-89102428D03*
X100330000Y-86210000D03*
D25*
%TO.N,GND*%
X121361200Y-79705200D03*
X124739400Y-75514200D03*
X126441200Y-76352400D03*
X115036600Y-74777600D03*
X110261400Y-81127000D03*
X110261400Y-83540600D03*
D24*
%TO.N,/Vcc*%
X99796600Y-90551000D03*
D25*
%TO.N,GND*%
X115229008Y-82281392D03*
D24*
%TO.N,/Vcc*%
X97078800Y-73329800D03*
X102768400Y-77800200D03*
D25*
%TO.N,GND*%
X130073400Y-95935800D03*
X124891800Y-92938600D03*
D24*
%TO.N,/Vcc*%
X94462600Y-86614000D03*
X108153200Y-75209400D03*
D25*
%TO.N,Net-(U3-~{INTA})*%
X98345599Y-89523400D03*
X96875600Y-94589600D03*
%TO.N,GND*%
X118516400Y-98018600D03*
X93954600Y-94818200D03*
X116730353Y-76420553D03*
D24*
%TO.N,/Vcc*%
X99796600Y-94970600D03*
D25*
X118605000Y-83276791D03*
X119265700Y-74510900D03*
%TO.N,GND*%
X96418400Y-87528400D03*
X113995200Y-74980800D03*
X94157800Y-78409800D03*
X106832400Y-78460600D03*
X137254400Y-85369400D03*
X123240800Y-76250800D03*
D24*
%TO.N,/Vcc*%
X95834200Y-86360000D03*
X106756200Y-75107800D03*
D25*
X124028200Y-81762600D03*
D24*
X101193600Y-97612200D03*
D25*
%TO.N,Net-(U4-PB7)*%
X116967000Y-91338400D03*
X118491000Y-93903800D03*
%TO.N,/SCK*%
X119380000Y-72733200D03*
X124968000Y-90932000D03*
X113258600Y-76835000D03*
X103854598Y-86699779D03*
X115087400Y-76708000D03*
X100939600Y-77978000D03*
X106578400Y-83058000D03*
%TO.N,/SDA*%
X103525494Y-87644076D03*
X99898200Y-76682600D03*
X114325400Y-79730600D03*
X126365000Y-85115400D03*
X105460800Y-88950800D03*
%TO.N,/TX*%
X111099600Y-96748600D03*
X110892192Y-79345391D03*
%TO.N,/RX*%
X111870422Y-80102938D03*
%TO.N,/D5*%
X109140406Y-87321804D03*
%TO.N,/D6*%
X110153989Y-87907000D03*
%TO.N,/D3*%
X106971000Y-86055200D03*
X106635800Y-79940281D03*
%TO.N,/D2*%
X109270800Y-78727000D03*
%TO.N,/D4*%
X116484400Y-93573600D03*
X112674400Y-81076800D03*
%TO.N,/D8*%
X112623600Y-88239600D03*
X113817400Y-95490200D03*
%TO.N,/D7*%
X114935000Y-94716600D03*
X115062000Y-84937600D03*
%TO.N,/RESET*%
X120218200Y-80492600D03*
X114884200Y-81076800D03*
%TO.N,/MISO*%
X117271800Y-87096600D03*
%TO.N,/MOSI*%
X117729000Y-90500200D03*
%TO.N,Net-(U3-SQW{slash}~INT)*%
X105384600Y-95986600D03*
X105333800Y-91174400D03*
%TD*%
D26*
%TO.N,/Vcc*%
X103020856Y-89611200D02*
X103529628Y-89102428D01*
X101710600Y-89611200D02*
X103020856Y-89611200D01*
X100180000Y-86360000D02*
X97949200Y-86360000D01*
X100330000Y-86210000D02*
X100180000Y-86360000D01*
D27*
%TO.N,/SDA*%
X100725601Y-93421200D02*
X101710600Y-93421200D01*
X98971600Y-90209273D02*
X98971600Y-91667199D01*
X99843782Y-89726000D02*
X99454873Y-89726000D01*
X100350600Y-89183918D02*
X100350600Y-89219182D01*
X100593318Y-88941200D02*
X100350600Y-89183918D01*
X102228370Y-88941200D02*
X100593318Y-88941200D01*
X100350600Y-89219182D02*
X99843782Y-89726000D01*
X103525494Y-87644076D02*
X102228370Y-88941200D01*
X98971600Y-91667199D02*
X100725601Y-93421200D01*
X99454873Y-89726000D02*
X98971600Y-90209273D01*
%TO.N,GND*%
X104439072Y-85090000D02*
X105149200Y-85090000D01*
X103109265Y-87035000D02*
X103109265Y-86419807D01*
X98544200Y-87035000D02*
X103109265Y-87035000D01*
X103109265Y-86419807D02*
X104439072Y-85090000D01*
X97949200Y-87630000D02*
X98544200Y-87035000D01*
%TO.N,/SDA*%
X103539570Y-87630000D02*
X105149200Y-87630000D01*
X103525494Y-87644076D02*
X103539570Y-87630000D01*
%TO.N,GND*%
X122500000Y-78566400D02*
X121361200Y-79705200D01*
X122500000Y-78460600D02*
X122500000Y-78566400D01*
%TO.N,Net-(U4-AREF)*%
X118643400Y-81965800D02*
X117807200Y-82802000D01*
X118643400Y-76506196D02*
X118643400Y-81965800D01*
X117723200Y-75585996D02*
X118643400Y-76506196D01*
X117576600Y-73228200D02*
X117723200Y-73374800D01*
X117723200Y-73374800D02*
X117723200Y-75585996D01*
X114665800Y-73228200D02*
X117576600Y-73228200D01*
X117807200Y-82802000D02*
X117130200Y-82802000D01*
%TO.N,GND*%
X123316600Y-76250800D02*
X125374000Y-78308200D01*
X122500000Y-76991600D02*
X123240800Y-76250800D01*
X123240800Y-76250800D02*
X123316600Y-76250800D01*
X122500000Y-78460600D02*
X122500000Y-76991600D01*
X125577600Y-76352400D02*
X124739400Y-75514200D01*
X126441200Y-76352400D02*
X125577600Y-76352400D01*
%TO.N,/Vcc*%
X120116600Y-73660000D02*
X120599200Y-73660000D01*
X119265700Y-74510900D02*
X120116600Y-73660000D01*
%TO.N,Net-(D2-K)*%
X122474200Y-74147200D02*
X122474200Y-73660000D01*
X120675000Y-75946400D02*
X122474200Y-74147200D01*
X120675000Y-78460600D02*
X120675000Y-75946400D01*
%TO.N,GND*%
X115036600Y-74777600D02*
X115087400Y-74777600D01*
X115087400Y-74777600D02*
X116730353Y-76420553D01*
%TO.N,/SCK*%
X118658400Y-85202000D02*
X117130200Y-85202000D01*
X118173200Y-73940000D02*
X118173200Y-75399600D01*
X118173200Y-75399600D02*
X119380000Y-76606400D01*
X119380000Y-72733200D02*
X118173200Y-73940000D01*
X119380000Y-84480400D02*
X118658400Y-85202000D01*
X119380000Y-76606400D02*
X119380000Y-84480400D01*
%TO.N,GND*%
X117778334Y-82002000D02*
X117130200Y-82002000D01*
X118190200Y-77880400D02*
X118190200Y-81590134D01*
X118190200Y-81590134D02*
X117778334Y-82002000D01*
X116730353Y-76420553D02*
X118190200Y-77880400D01*
X111785400Y-74955400D02*
X111226600Y-74396600D01*
X113969800Y-74955400D02*
X111785400Y-74955400D01*
X113995200Y-74980800D02*
X113969800Y-74955400D01*
X110186400Y-81202000D02*
X108790200Y-81202000D01*
X110261400Y-81127000D02*
X110186400Y-81202000D01*
X109522800Y-82802000D02*
X110261400Y-83540600D01*
X108790200Y-82802000D02*
X109522800Y-82802000D01*
D26*
%TO.N,/Vcc*%
X100736400Y-89611200D02*
X99796600Y-90551000D01*
X101710600Y-89611200D02*
X100736400Y-89611200D01*
D27*
%TO.N,Net-(U3-~{INTA})*%
X98345599Y-91012773D02*
X97207172Y-92151200D01*
X97207172Y-92151200D02*
X96760600Y-92151200D01*
X98345599Y-89523400D02*
X98345599Y-91012773D01*
%TO.N,/D3*%
X106724200Y-86302000D02*
X106971000Y-86055200D01*
X106724200Y-93287600D02*
X106724200Y-86302000D01*
X105897600Y-94114200D02*
X106724200Y-93287600D01*
X101818794Y-94114200D02*
X105897600Y-94114200D01*
X99344028Y-92771200D02*
X101010028Y-94437200D01*
X101010028Y-94437200D02*
X101495794Y-94437200D01*
X92989400Y-94488000D02*
X94706200Y-92771200D01*
X94706200Y-92771200D02*
X99344028Y-92771200D01*
X92989400Y-95173800D02*
X92989400Y-94488000D01*
X97485200Y-99669600D02*
X92989400Y-95173800D01*
X101495794Y-94437200D02*
X101818794Y-94114200D01*
%TO.N,GND*%
X115508400Y-82002000D02*
X117130200Y-82002000D01*
X115229008Y-82281392D02*
X115508400Y-82002000D01*
%TO.N,/Vcc*%
X113853600Y-82002000D02*
X108790200Y-82002000D01*
X116253600Y-84402000D02*
X113853600Y-82002000D01*
X117130200Y-84402000D02*
X116253600Y-84402000D01*
%TO.N,/D7*%
X111760200Y-85837001D02*
X111760200Y-86572000D01*
X112659601Y-84937600D02*
X111760200Y-85837001D01*
X115062000Y-84937600D02*
X112659601Y-84937600D01*
%TO.N,GND*%
X106197400Y-79095600D02*
X106832400Y-78460600D01*
X104648000Y-79095600D02*
X106197400Y-79095600D01*
%TO.N,/D3*%
X106635800Y-79940281D02*
X106974081Y-79602000D01*
X106974081Y-79602000D02*
X108790200Y-79602000D01*
%TO.N,/SCK*%
X106578400Y-85242405D02*
X106578400Y-83058000D01*
X105460805Y-86360000D02*
X106578400Y-85242405D01*
X105149200Y-86360000D02*
X105460805Y-86360000D01*
D26*
%TO.N,/Vcc*%
X106467673Y-82002000D02*
X108790200Y-82002000D01*
X105691073Y-82778600D02*
X106467673Y-82002000D01*
X91586600Y-82002000D02*
X92363200Y-82778600D01*
X92363200Y-82778600D02*
X105691073Y-82778600D01*
D27*
%TO.N,GND*%
X108790200Y-82802000D02*
X109525199Y-82802000D01*
%TO.N,/Vcc*%
X120599200Y-72466200D02*
X120599200Y-73660000D01*
X120091200Y-71958200D02*
X120599200Y-72466200D01*
X111871800Y-71958200D02*
X120091200Y-71958200D01*
X110652600Y-73177400D02*
X111871800Y-71958200D01*
X118417000Y-84402000D02*
X117130200Y-84402000D01*
X118605000Y-84214000D02*
X118417000Y-84402000D01*
X118605000Y-83276791D02*
X118605000Y-84214000D01*
D26*
X102768400Y-77901800D02*
X102768400Y-77800200D01*
X103496436Y-78629836D02*
X102768400Y-77901800D01*
X103496436Y-78629836D02*
X104300672Y-77825600D01*
X101760672Y-80365600D02*
X103496436Y-78629836D01*
D27*
%TO.N,GND*%
X101664600Y-76872000D02*
X101981000Y-76555600D01*
X101664600Y-78278305D02*
X101664600Y-76872000D01*
X100847305Y-79095600D02*
X101664600Y-78278305D01*
X97448000Y-79095600D02*
X100847305Y-79095600D01*
X101981000Y-76555600D02*
X104648000Y-76555600D01*
X118516400Y-95504000D02*
X118516400Y-98018600D01*
X126153204Y-95065000D02*
X118955400Y-95065000D01*
X118955400Y-95065000D02*
X118516400Y-95504000D01*
X127134200Y-98077996D02*
X127134200Y-96045996D01*
X128009400Y-98953196D02*
X127134200Y-98077996D01*
X128697699Y-100666800D02*
X128009400Y-99978501D01*
X127134200Y-96045996D02*
X126153204Y-95065000D01*
X130359400Y-99978501D02*
X129671101Y-100666800D01*
X130359400Y-96221800D02*
X130359400Y-99978501D01*
X129671101Y-100666800D02*
X128697699Y-100666800D01*
X130073400Y-95935800D02*
X130359400Y-96221800D01*
X128009400Y-99978501D02*
X128009400Y-98953196D01*
%TO.N,/TX*%
X115011200Y-96748600D02*
X111099600Y-96748600D01*
X118805105Y-94615000D02*
X118791305Y-94628800D01*
X126339600Y-94615000D02*
X118805105Y-94615000D01*
X127584200Y-95859600D02*
X126339600Y-94615000D01*
X127584200Y-97891600D02*
X127584200Y-95859600D01*
X118190695Y-94628800D02*
X118176895Y-94615000D01*
X129184400Y-99491800D02*
X127584200Y-97891600D01*
X118791305Y-94628800D02*
X118190695Y-94628800D01*
D26*
%TO.N,/Vcc*%
X122148600Y-101447600D02*
X124104400Y-99491800D01*
X117043200Y-101447600D02*
X122148600Y-101447600D01*
D27*
%TO.N,/TX*%
X117144800Y-94615000D02*
X115011200Y-96748600D01*
D26*
%TO.N,/Vcc*%
X115265200Y-99669600D02*
X117043200Y-101447600D01*
D27*
%TO.N,/TX*%
X118176895Y-94615000D02*
X117144800Y-94615000D01*
%TO.N,/SCK*%
X119989600Y-83923500D02*
X120905900Y-83007200D01*
X119989600Y-84476800D02*
X119989600Y-83923500D01*
X120905900Y-85393100D02*
X119989600Y-84476800D01*
%TO.N,/SDA*%
X135315800Y-88950800D02*
X136474200Y-90109200D01*
X127165600Y-88950800D02*
X135315800Y-88950800D01*
X127095500Y-89020900D02*
X127165600Y-88950800D01*
X127095500Y-87122000D02*
X127095500Y-89020900D01*
D26*
%TO.N,/Vcc*%
X125270500Y-87973718D02*
X125270500Y-87122000D01*
X129041582Y-91744800D02*
X125270500Y-87973718D01*
X136474200Y-92649200D02*
X135569800Y-91744800D01*
X135569800Y-91744800D02*
X129041582Y-91744800D01*
D27*
%TO.N,GND*%
X106017800Y-81202000D02*
X105714800Y-80899000D01*
X108790200Y-81202000D02*
X106017800Y-81202000D01*
X105714800Y-80899000D02*
X105823000Y-80790800D01*
X105573200Y-81040600D02*
X105714800Y-80899000D01*
X96560000Y-81040600D02*
X105573200Y-81040600D01*
%TO.N,/TX*%
X110892192Y-78300008D02*
X110960200Y-78232000D01*
X110892192Y-79345391D02*
X110892192Y-78300008D01*
%TO.N,/RX*%
X111870422Y-78342222D02*
X111760200Y-78232000D01*
X111870422Y-80102938D02*
X111870422Y-78342222D01*
%TO.N,/RESET*%
X114884200Y-81076800D02*
X113757295Y-81076800D01*
X113757295Y-81076800D02*
X112560200Y-79879705D01*
X112560200Y-79879705D02*
X112560200Y-78232000D01*
%TO.N,/D4*%
X112674400Y-81076800D02*
X111623695Y-81076800D01*
X111623695Y-81076800D02*
X110948895Y-80402000D01*
X110948895Y-80402000D02*
X108790200Y-80402000D01*
%TO.N,/SDA*%
X114325400Y-79011570D02*
X114160200Y-78846370D01*
X114160200Y-78846370D02*
X114160200Y-78232000D01*
X114325400Y-79730600D02*
X114325400Y-79011570D01*
%TO.N,GND*%
X124409200Y-92456000D02*
X122362000Y-92456000D01*
X124891800Y-92938600D02*
X124409200Y-92456000D01*
X122362000Y-92456000D02*
X122362000Y-92928400D01*
X108790200Y-81202000D02*
X108780400Y-81192200D01*
D26*
%TO.N,/Vcc*%
X95834200Y-86360000D02*
X97949200Y-86360000D01*
X106756200Y-73395800D02*
X106537800Y-73177400D01*
X106756200Y-75107800D02*
X106756200Y-73395800D01*
D27*
%TO.N,Net-(U3-~{INTA})*%
X96344100Y-95121100D02*
X96875600Y-94589600D01*
X96344100Y-95631000D02*
X96344100Y-95121100D01*
D26*
%TO.N,/Vcc*%
X99136200Y-95631000D02*
X99796600Y-94970600D01*
X98169100Y-95631000D02*
X99136200Y-95631000D01*
D27*
%TO.N,GND*%
X95351600Y-93421200D02*
X93954600Y-94818200D01*
X96760600Y-93421200D02*
X95351600Y-93421200D01*
D26*
%TO.N,/Vcc*%
X105873000Y-77400599D02*
X105447999Y-77825600D01*
X105873000Y-76163272D02*
X105873000Y-77400599D01*
X105447999Y-77825600D02*
X104648000Y-77825600D01*
X105740200Y-73975000D02*
X105740200Y-76030472D01*
X106537800Y-73177400D02*
X105740200Y-73975000D01*
X105740200Y-76030472D02*
X105873000Y-76163272D01*
X101193600Y-97612200D02*
X102236900Y-96568900D01*
X102236900Y-96568900D02*
X102236900Y-95935800D01*
D27*
%TO.N,GND*%
X136804400Y-84919400D02*
X137254400Y-85369400D01*
X136804400Y-83362800D02*
X136804400Y-84919400D01*
%TO.N,/Vcc*%
X90855800Y-82732800D02*
X91586600Y-82002000D01*
%TO.N,GND*%
X104637800Y-73177400D02*
X105933200Y-71882000D01*
X105447999Y-79095600D02*
X105823000Y-79470601D01*
X96273000Y-79545800D02*
X96723200Y-79095600D01*
X108559600Y-72984400D02*
X108752600Y-73177400D01*
X104648000Y-79095600D02*
X105447999Y-79095600D01*
X96560000Y-81040600D02*
X96273000Y-80753600D01*
X105823000Y-79470601D02*
X105823000Y-80790800D01*
X108712000Y-74396600D02*
X108752600Y-74356000D01*
X122362000Y-92456000D02*
X122362000Y-88394300D01*
X108752600Y-74356000D02*
X108752600Y-73177400D01*
X90855800Y-80192800D02*
X91953000Y-79095600D01*
X111597400Y-74396600D02*
X111226600Y-74396600D01*
X125221600Y-78460600D02*
X125374000Y-78308200D01*
X94157800Y-79095600D02*
X97448000Y-79095600D01*
X96273000Y-80753600D02*
X96273000Y-79545800D01*
X122500000Y-78460600D02*
X122682000Y-78460600D01*
X94157800Y-79095600D02*
X94157800Y-78409800D01*
X105933200Y-71882000D02*
X108559600Y-71882000D01*
X122362000Y-88394300D02*
X122334300Y-88366600D01*
X91953000Y-79095600D02*
X94157800Y-79095600D01*
X111226600Y-74396600D02*
X108712000Y-74396600D01*
X112765800Y-73228200D02*
X111597400Y-74396600D01*
X104637800Y-73177400D02*
X104637800Y-76545400D01*
X97949200Y-87630000D02*
X96520000Y-87630000D01*
X96723200Y-79095600D02*
X97448000Y-79095600D01*
X108559600Y-71882000D02*
X108559600Y-72984400D01*
X104637800Y-76545400D02*
X104648000Y-76555600D01*
X96520000Y-87630000D02*
X96418400Y-87528400D01*
D26*
%TO.N,/Vcc*%
X125270500Y-87122000D02*
X125270500Y-86768700D01*
X125274700Y-83007200D02*
X125350900Y-82931000D01*
X97949200Y-85090000D02*
X97949200Y-86360000D01*
X104300672Y-77825600D02*
X104648000Y-77825600D01*
X104648000Y-80365600D02*
X101760672Y-80365600D01*
X97949200Y-83820000D02*
X105149200Y-83820000D01*
X124028200Y-83007200D02*
X125274700Y-83007200D01*
X124028200Y-83007200D02*
X124028200Y-81762600D01*
X125270500Y-83011400D02*
X125350900Y-82931000D01*
X125350900Y-86688300D02*
X125350900Y-82931000D01*
X97949200Y-83820000D02*
X97949200Y-85090000D01*
X97448000Y-80365600D02*
X101760672Y-80365600D01*
X122730900Y-83007200D02*
X124028200Y-83007200D01*
X125270500Y-86768700D02*
X125350900Y-86688300D01*
D27*
%TO.N,Net-(U4-PB7)*%
X120462000Y-92456000D02*
X119014200Y-93903800D01*
X113309400Y-90830400D02*
X111784400Y-89305400D01*
X108146000Y-89305400D02*
X108146000Y-85846200D01*
X114182200Y-90830400D02*
X113309400Y-90830400D01*
X108146000Y-85846200D02*
X108790200Y-85202000D01*
X119014200Y-93903800D02*
X118491000Y-93903800D01*
X111784400Y-89305400D02*
X108146000Y-89305400D01*
X116459000Y-90830400D02*
X114182200Y-90830400D01*
X116967000Y-91338400D02*
X116459000Y-90830400D01*
%TO.N,Net-(U4-PB6)*%
X108982200Y-90830400D02*
X110507200Y-92355400D01*
X120434300Y-89091600D02*
X120434300Y-88366600D01*
X107696000Y-89544200D02*
X107696000Y-84848066D01*
X107696000Y-84848066D02*
X108142066Y-84402000D01*
X108982200Y-90830400D02*
X107696000Y-89544200D01*
X110507200Y-92355400D02*
X117170500Y-92355400D01*
X117170500Y-92355400D02*
X120434300Y-89091600D01*
X108142066Y-84402000D02*
X108790200Y-84402000D01*
%TO.N,Net-(D1-K)*%
X127224000Y-78283200D02*
X127199000Y-78308200D01*
X127224000Y-73761600D02*
X127224000Y-78283200D01*
%TO.N,/SCK*%
X105740200Y-86360000D02*
X105149200Y-86360000D01*
X137979400Y-86064000D02*
X137979400Y-80336099D01*
X113258600Y-78130400D02*
X113360200Y-78232000D01*
X125349000Y-73761600D02*
X126374000Y-72736600D01*
X113258600Y-76835000D02*
X113258600Y-78130400D01*
X113385600Y-76708000D02*
X113258600Y-76835000D01*
X137979400Y-80336099D02*
X137221501Y-79578200D01*
X136474200Y-87569200D02*
X137979400Y-86064000D01*
X126374000Y-72736600D02*
X128362600Y-72736600D01*
X105149200Y-86360000D02*
X104194377Y-86360000D01*
X137221501Y-79578200D02*
X135509000Y-79578200D01*
X128549400Y-75107800D02*
X134264400Y-80822800D01*
X128362600Y-72736600D02*
X128549400Y-72923400D01*
X120714800Y-85202000D02*
X120905900Y-85393100D01*
X135509000Y-79578200D02*
X134264400Y-80822800D01*
X100939600Y-77978000D02*
X100787200Y-77825600D01*
X106274200Y-86894000D02*
X105740200Y-86360000D01*
X115087400Y-76708000D02*
X113385600Y-76708000D01*
X117130200Y-85202000D02*
X120714800Y-85202000D01*
X104194377Y-86360000D02*
X103854598Y-86699779D01*
X124968000Y-90932000D02*
X124968000Y-89455200D01*
X124968000Y-89455200D02*
X120905900Y-85393100D01*
X101710600Y-92151200D02*
X106274200Y-92151200D01*
X106274200Y-92151200D02*
X106274200Y-86894000D01*
X128549400Y-72923400D02*
X128549400Y-75107800D01*
X100787200Y-77825600D02*
X97448000Y-77825600D01*
%TO.N,/SDA*%
X127095500Y-85845900D02*
X126365000Y-85115400D01*
X99187000Y-76682600D02*
X99060000Y-76555600D01*
X105149200Y-87630000D02*
X105149200Y-88639200D01*
X105149200Y-88639200D02*
X105460800Y-88950800D01*
X99060000Y-76555600D02*
X97448000Y-76555600D01*
X127095500Y-87122000D02*
X127095500Y-85845900D01*
X99898200Y-76682600D02*
X99187000Y-76682600D01*
%TO.N,/D5*%
X109890210Y-86572000D02*
X110160200Y-86572000D01*
X109140406Y-87321804D02*
X109890210Y-86572000D01*
%TO.N,/D6*%
X110960200Y-87306999D02*
X110960200Y-86572000D01*
X110360199Y-87907000D02*
X110960200Y-87306999D01*
X110153989Y-87907000D02*
X110360199Y-87907000D01*
%TO.N,/D2*%
X109665200Y-78727000D02*
X110160200Y-78232000D01*
X109270800Y-78727000D02*
X109665200Y-78727000D01*
%TO.N,/D4*%
X111887000Y-93573600D02*
X116484400Y-93573600D01*
X102005190Y-94564200D02*
X110896400Y-94564200D01*
X100025200Y-96544190D02*
X102005190Y-94564200D01*
X110896400Y-94564200D02*
X111887000Y-93573600D01*
X100025200Y-99669600D02*
X100025200Y-96544190D01*
%TO.N,/D8*%
X112623600Y-86635400D02*
X112560200Y-86572000D01*
X112623600Y-88239600D02*
X112623600Y-86635400D01*
X110185200Y-96637695D02*
X111332695Y-95490200D01*
X110185200Y-99669600D02*
X110185200Y-96637695D01*
X111332695Y-95490200D02*
X113817400Y-95490200D01*
%TO.N,/D7*%
X111396119Y-94716600D02*
X114935000Y-94716600D01*
X107645200Y-99669600D02*
X107645200Y-98467519D01*
X107645200Y-98467519D02*
X111396119Y-94716600D01*
%TO.N,/RESET*%
X127175900Y-82931000D02*
X133832600Y-82931000D01*
X133832600Y-82931000D02*
X134264400Y-83362800D01*
X124737500Y-80492600D02*
X120218200Y-80492600D01*
X127175900Y-82931000D02*
X124737500Y-80492600D01*
%TO.N,/MISO*%
X116284800Y-87096600D02*
X115760200Y-86572000D01*
X117271800Y-87096600D02*
X116284800Y-87096600D01*
%TO.N,/MOSI*%
X114960200Y-87731400D02*
X114960200Y-86572000D01*
X117729000Y-90500200D02*
X114960200Y-87731400D01*
%TO.N,Net-(U3-SQW{slash}~INT)*%
X105333800Y-95935800D02*
X105384600Y-95986600D01*
X105333800Y-91174400D02*
X105040600Y-90881200D01*
X104061900Y-95935800D02*
X105333800Y-95935800D01*
X105040600Y-90881200D02*
X101710600Y-90881200D01*
%TO.N,Net-(U3-X2)*%
X93862200Y-90957400D02*
X96684400Y-90957400D01*
X96684400Y-90957400D02*
X96760600Y-90881200D01*
X90881200Y-93938400D02*
X93862200Y-90957400D01*
%TO.N,Net-(U3-X1)*%
X90881200Y-88738400D02*
X95887800Y-88738400D01*
X95887800Y-88738400D02*
X96760600Y-89611200D01*
%TD*%
%TA.AperFunction,Conductor*%
%TO.N,/Vcc*%
G36*
X104970105Y-71661216D02*
G01*
X105037129Y-71680938D01*
X105082854Y-71733768D01*
X105092758Y-71802932D01*
X105063697Y-71866471D01*
X105057712Y-71872895D01*
X105015028Y-71915580D01*
X104953706Y-71949066D01*
X104927346Y-71951900D01*
X104337798Y-71951900D01*
X104337780Y-71951901D01*
X104235003Y-71962400D01*
X104235000Y-71962401D01*
X104068468Y-72017585D01*
X104068463Y-72017587D01*
X103919142Y-72109689D01*
X103795089Y-72233742D01*
X103702987Y-72383063D01*
X103702985Y-72383068D01*
X103677658Y-72459500D01*
X103647801Y-72549603D01*
X103647801Y-72549604D01*
X103647800Y-72549604D01*
X103637300Y-72652383D01*
X103637300Y-73702401D01*
X103637301Y-73702419D01*
X103647800Y-73805196D01*
X103647801Y-73805199D01*
X103702985Y-73971731D01*
X103702987Y-73971736D01*
X103737869Y-74028288D01*
X103794896Y-74120745D01*
X103795089Y-74121057D01*
X103919145Y-74245113D01*
X103953394Y-74266237D01*
X104000120Y-74318184D01*
X104012300Y-74371777D01*
X104012300Y-75634179D01*
X103992615Y-75701218D01*
X103939811Y-75746973D01*
X103901665Y-75756855D01*
X103901667Y-75756863D01*
X103901562Y-75756882D01*
X103898035Y-75757796D01*
X103895440Y-75758000D01*
X103895426Y-75758002D01*
X103737606Y-75803854D01*
X103737603Y-75803855D01*
X103596137Y-75887517D01*
X103596129Y-75887523D01*
X103589872Y-75893781D01*
X103528549Y-75927266D01*
X103502191Y-75930100D01*
X101919389Y-75930100D01*
X101858971Y-75942118D01*
X101815743Y-75950716D01*
X101798546Y-75954137D01*
X101684716Y-76001287D01*
X101684707Y-76001292D01*
X101582268Y-76069740D01*
X101560063Y-76091946D01*
X101495142Y-76156867D01*
X101178744Y-76473264D01*
X101178742Y-76473267D01*
X101164893Y-76493994D01*
X101164892Y-76493996D01*
X101164891Y-76493995D01*
X101110289Y-76575712D01*
X101110285Y-76575719D01*
X101081011Y-76646393D01*
X101081012Y-76646394D01*
X101066017Y-76682598D01*
X101063529Y-76688604D01*
X101063509Y-76688651D01*
X101063138Y-76689545D01*
X101063137Y-76689548D01*
X101063137Y-76689549D01*
X101039348Y-76809149D01*
X101039338Y-76809195D01*
X101039335Y-76809214D01*
X101039019Y-76810796D01*
X101006584Y-76872681D01*
X100945841Y-76907206D01*
X100876074Y-76903411D01*
X100819435Y-76862499D01*
X100793906Y-76797460D01*
X100794099Y-76773560D01*
X100803660Y-76682600D01*
X100783874Y-76494344D01*
X100725379Y-76314316D01*
X100630733Y-76150384D01*
X100504071Y-76009712D01*
X100504070Y-76009711D01*
X100350934Y-75898451D01*
X100350929Y-75898448D01*
X100178007Y-75821457D01*
X100178002Y-75821455D01*
X100032201Y-75790465D01*
X99992846Y-75782100D01*
X99803554Y-75782100D01*
X99771097Y-75788998D01*
X99618397Y-75821455D01*
X99618392Y-75821457D01*
X99445470Y-75898448D01*
X99445468Y-75898450D01*
X99379113Y-75946658D01*
X99313307Y-75970136D01*
X99258778Y-75960899D01*
X99242455Y-75954138D01*
X99242453Y-75954137D01*
X99242452Y-75954137D01*
X99182029Y-75942118D01*
X99121610Y-75930100D01*
X99121607Y-75930100D01*
X99121606Y-75930100D01*
X98593809Y-75930100D01*
X98526770Y-75910415D01*
X98506128Y-75893781D01*
X98499870Y-75887523D01*
X98499862Y-75887517D01*
X98387683Y-75821175D01*
X98358398Y-75803856D01*
X98358397Y-75803855D01*
X98358396Y-75803855D01*
X98358393Y-75803854D01*
X98200573Y-75758002D01*
X98200567Y-75758001D01*
X98163701Y-75755100D01*
X98163694Y-75755100D01*
X96732306Y-75755100D01*
X96732298Y-75755100D01*
X96695432Y-75758001D01*
X96695426Y-75758002D01*
X96537606Y-75803854D01*
X96537603Y-75803855D01*
X96396137Y-75887517D01*
X96396129Y-75887523D01*
X96279923Y-76003729D01*
X96279917Y-76003737D01*
X96196255Y-76145203D01*
X96196254Y-76145206D01*
X96150402Y-76303026D01*
X96150401Y-76303032D01*
X96147500Y-76339898D01*
X96147500Y-76771292D01*
X96150401Y-76808167D01*
X96150402Y-76808173D01*
X96196254Y-76965993D01*
X96196255Y-76965996D01*
X96196256Y-76965998D01*
X96209862Y-76989004D01*
X96279917Y-77107462D01*
X96284702Y-77113631D01*
X96282256Y-77115527D01*
X96308857Y-77164242D01*
X96303873Y-77233934D01*
X96283069Y-77266303D01*
X96284702Y-77267569D01*
X96279917Y-77273737D01*
X96196255Y-77415203D01*
X96196254Y-77415206D01*
X96150402Y-77573026D01*
X96150401Y-77573032D01*
X96147500Y-77609898D01*
X96147500Y-78041301D01*
X96150401Y-78078167D01*
X96150402Y-78078173D01*
X96196254Y-78235993D01*
X96196254Y-78235994D01*
X96224041Y-78282980D01*
X96241222Y-78350704D01*
X96219062Y-78416966D01*
X96164596Y-78460729D01*
X96117308Y-78470100D01*
X95181248Y-78470100D01*
X95114209Y-78450415D01*
X95068454Y-78397611D01*
X95057927Y-78359062D01*
X95043474Y-78221544D01*
X94984979Y-78041516D01*
X94890333Y-77877584D01*
X94763671Y-77736912D01*
X94763670Y-77736911D01*
X94610534Y-77625651D01*
X94610529Y-77625648D01*
X94437607Y-77548657D01*
X94437602Y-77548655D01*
X94291801Y-77517665D01*
X94252446Y-77509300D01*
X94063154Y-77509300D01*
X94052564Y-77511551D01*
X93877997Y-77548655D01*
X93877992Y-77548657D01*
X93705070Y-77625648D01*
X93705065Y-77625651D01*
X93551929Y-77736911D01*
X93425266Y-77877585D01*
X93330621Y-78041515D01*
X93330618Y-78041522D01*
X93273611Y-78216974D01*
X93272126Y-78221544D01*
X93257673Y-78359062D01*
X93231088Y-78423676D01*
X93173791Y-78463661D01*
X93134352Y-78470100D01*
X92014607Y-78470100D01*
X91891393Y-78470100D01*
X91832257Y-78481862D01*
X91770555Y-78494135D01*
X91770541Y-78494139D01*
X91744819Y-78504794D01*
X91656718Y-78541285D01*
X91656709Y-78541290D01*
X91626854Y-78561240D01*
X91626853Y-78561241D01*
X91554268Y-78609740D01*
X91515153Y-78648856D01*
X91467142Y-78696867D01*
X91467139Y-78696870D01*
X91383932Y-78780077D01*
X91311446Y-78852563D01*
X91250123Y-78886047D01*
X91191672Y-78884656D01*
X91091213Y-78857738D01*
X91091203Y-78857736D01*
X90855801Y-78837141D01*
X90855799Y-78837141D01*
X90620396Y-78857736D01*
X90620386Y-78857738D01*
X90392144Y-78918894D01*
X90392135Y-78918898D01*
X90177971Y-79018764D01*
X90177969Y-79018765D01*
X89984397Y-79154305D01*
X89817305Y-79321397D01*
X89681765Y-79514969D01*
X89681764Y-79514971D01*
X89581898Y-79729135D01*
X89581894Y-79729144D01*
X89520738Y-79957386D01*
X89520736Y-79957396D01*
X89500141Y-80192799D01*
X89500141Y-80192800D01*
X89520736Y-80428203D01*
X89520738Y-80428213D01*
X89581894Y-80656455D01*
X89581896Y-80656459D01*
X89581897Y-80656463D01*
X89665936Y-80836684D01*
X89681765Y-80870630D01*
X89681767Y-80870634D01*
X89729458Y-80938743D01*
X89817301Y-81064196D01*
X89817306Y-81064202D01*
X89939618Y-81186514D01*
X89973103Y-81247837D01*
X89968119Y-81317529D01*
X89926247Y-81373462D01*
X89895271Y-81390377D01*
X89763712Y-81439446D01*
X89763706Y-81439449D01*
X89648612Y-81525609D01*
X89648609Y-81525612D01*
X89562449Y-81640706D01*
X89562445Y-81640713D01*
X89512203Y-81775420D01*
X89512201Y-81775427D01*
X89505800Y-81834955D01*
X89505800Y-82482800D01*
X90422788Y-82482800D01*
X90389875Y-82539807D01*
X90355800Y-82666974D01*
X90355800Y-82798626D01*
X90389875Y-82925793D01*
X90422788Y-82982800D01*
X89505800Y-82982800D01*
X89505800Y-83630644D01*
X89512201Y-83690172D01*
X89512203Y-83690179D01*
X89562445Y-83824886D01*
X89562449Y-83824893D01*
X89648609Y-83939987D01*
X89648612Y-83939990D01*
X89763706Y-84026150D01*
X89763713Y-84026154D01*
X89898420Y-84076396D01*
X89898427Y-84076398D01*
X89957955Y-84082799D01*
X89957972Y-84082800D01*
X90605800Y-84082800D01*
X90605800Y-83165812D01*
X90662807Y-83198725D01*
X90789974Y-83232800D01*
X90921626Y-83232800D01*
X91048793Y-83198725D01*
X91105800Y-83165812D01*
X91105800Y-84082800D01*
X91753628Y-84082800D01*
X91753644Y-84082799D01*
X91813172Y-84076398D01*
X91813179Y-84076396D01*
X91947886Y-84026154D01*
X91947893Y-84026150D01*
X92062987Y-83939990D01*
X92062990Y-83939987D01*
X92149150Y-83824893D01*
X92149154Y-83824886D01*
X92199396Y-83690179D01*
X92199398Y-83690172D01*
X92205799Y-83630644D01*
X92205800Y-83630627D01*
X92205800Y-83569998D01*
X96651904Y-83569998D01*
X96651905Y-83570000D01*
X97699200Y-83570000D01*
X97699200Y-83020000D01*
X98199200Y-83020000D01*
X98199200Y-83570000D01*
X99246495Y-83570000D01*
X99246495Y-83569998D01*
X103851904Y-83569998D01*
X103851905Y-83570000D01*
X104899200Y-83570000D01*
X104899200Y-83020000D01*
X104433550Y-83020000D01*
X104396710Y-83022899D01*
X104396704Y-83022900D01*
X104239006Y-83068716D01*
X104239003Y-83068717D01*
X104097647Y-83152314D01*
X104097638Y-83152321D01*
X103981521Y-83268438D01*
X103981514Y-83268447D01*
X103897918Y-83409801D01*
X103852099Y-83567513D01*
X103851904Y-83569998D01*
X99246495Y-83569998D01*
X99246300Y-83567513D01*
X99200481Y-83409801D01*
X99116885Y-83268447D01*
X99116878Y-83268438D01*
X99000761Y-83152321D01*
X99000752Y-83152314D01*
X98859396Y-83068717D01*
X98859393Y-83068716D01*
X98701695Y-83022900D01*
X98701689Y-83022899D01*
X98664849Y-83020000D01*
X98199200Y-83020000D01*
X97699200Y-83020000D01*
X97233550Y-83020000D01*
X97196710Y-83022899D01*
X97196704Y-83022900D01*
X97039006Y-83068716D01*
X97039003Y-83068717D01*
X96897647Y-83152314D01*
X96897638Y-83152321D01*
X96781521Y-83268438D01*
X96781514Y-83268447D01*
X96697918Y-83409801D01*
X96652099Y-83567513D01*
X96651904Y-83569998D01*
X92205800Y-83569998D01*
X92205800Y-82982800D01*
X91288812Y-82982800D01*
X91321725Y-82925793D01*
X91355800Y-82798626D01*
X91355800Y-82666974D01*
X91321725Y-82539807D01*
X91288812Y-82482800D01*
X92205800Y-82482800D01*
X92205800Y-81834972D01*
X92205799Y-81834955D01*
X92199398Y-81775427D01*
X92199396Y-81775420D01*
X92149154Y-81640713D01*
X92149150Y-81640706D01*
X92062990Y-81525612D01*
X92062987Y-81525609D01*
X91947893Y-81439449D01*
X91947888Y-81439446D01*
X91816328Y-81390377D01*
X91760395Y-81348505D01*
X91735978Y-81283041D01*
X91750830Y-81214768D01*
X91771975Y-81186520D01*
X91894295Y-81064201D01*
X92029835Y-80870630D01*
X92129703Y-80656463D01*
X92190863Y-80428208D01*
X92211459Y-80192800D01*
X92190863Y-79957392D01*
X92176810Y-79904947D01*
X92169374Y-79877193D01*
X92171037Y-79807343D01*
X92210200Y-79749481D01*
X92274428Y-79721977D01*
X92289149Y-79721100D01*
X94096194Y-79721100D01*
X94219406Y-79721100D01*
X95523500Y-79721100D01*
X95590539Y-79740785D01*
X95636294Y-79793589D01*
X95647500Y-79845100D01*
X95647500Y-80815206D01*
X95656040Y-80858146D01*
X95671536Y-80936049D01*
X95671538Y-80936056D01*
X95672651Y-80938743D01*
X95718685Y-81049881D01*
X95718688Y-81049886D01*
X95743543Y-81087083D01*
X95743544Y-81087086D01*
X95743545Y-81087086D01*
X95787141Y-81152332D01*
X95787144Y-81152336D01*
X95878586Y-81243778D01*
X95878608Y-81243798D01*
X96071016Y-81436206D01*
X96071045Y-81436237D01*
X96161263Y-81526455D01*
X96161267Y-81526458D01*
X96263707Y-81594907D01*
X96263713Y-81594910D01*
X96263714Y-81594911D01*
X96377548Y-81642063D01*
X96404110Y-81647346D01*
X96426163Y-81651733D01*
X96426179Y-81651736D01*
X96426199Y-81651740D01*
X96498391Y-81666099D01*
X96498392Y-81666100D01*
X96498393Y-81666100D01*
X96498394Y-81666100D01*
X105511593Y-81666100D01*
X105548888Y-81666100D01*
X105615927Y-81685785D01*
X105617779Y-81686998D01*
X105721508Y-81756308D01*
X105721512Y-81756310D01*
X105721515Y-81756312D01*
X105772183Y-81777299D01*
X105772184Y-81777300D01*
X105772185Y-81777300D01*
X105835348Y-81803463D01*
X105851622Y-81806700D01*
X105930051Y-81822300D01*
X105956193Y-81827501D01*
X105956194Y-81827501D01*
X106085521Y-81827501D01*
X106085541Y-81827500D01*
X107672941Y-81827500D01*
X107739980Y-81847185D01*
X107747864Y-81852695D01*
X107759202Y-81861293D01*
X107814459Y-81903196D01*
X107855982Y-81959388D01*
X107860533Y-82029110D01*
X107826668Y-82090224D01*
X107814460Y-82100801D01*
X107708989Y-82180784D01*
X107708984Y-82180789D01*
X107692197Y-82202927D01*
X107636004Y-82244449D01*
X107593394Y-82252000D01*
X107555200Y-82252000D01*
X107555200Y-82280653D01*
X107565592Y-82367197D01*
X107566448Y-82370583D01*
X107566448Y-82374323D01*
X107566540Y-82375090D01*
X107566448Y-82375101D01*
X107566448Y-82431360D01*
X107565101Y-82436684D01*
X107561143Y-82469648D01*
X107556863Y-82505290D01*
X107529327Y-82569503D01*
X107471444Y-82608636D01*
X107401594Y-82610263D01*
X107341952Y-82573868D01*
X107326361Y-82552506D01*
X107319029Y-82539807D01*
X107310933Y-82525784D01*
X107184271Y-82385112D01*
X107170477Y-82375090D01*
X107031134Y-82273851D01*
X107031129Y-82273848D01*
X106858207Y-82196857D01*
X106858202Y-82196855D01*
X106693652Y-82161880D01*
X106673046Y-82157500D01*
X106483754Y-82157500D01*
X106463171Y-82161875D01*
X106298597Y-82196855D01*
X106298592Y-82196857D01*
X106125670Y-82273848D01*
X106125665Y-82273851D01*
X105972529Y-82385111D01*
X105845866Y-82525785D01*
X105751221Y-82689715D01*
X105751218Y-82689722D01*
X105693386Y-82867712D01*
X105692726Y-82869744D01*
X105688603Y-82908963D01*
X105662021Y-82973576D01*
X105604723Y-83013561D01*
X105565284Y-83020000D01*
X105399200Y-83020000D01*
X105399200Y-83946000D01*
X105379515Y-84013039D01*
X105326711Y-84058794D01*
X105275200Y-84070000D01*
X103851905Y-84070000D01*
X103851904Y-84070001D01*
X103852099Y-84072486D01*
X103897918Y-84230198D01*
X103981514Y-84371552D01*
X103986300Y-84377722D01*
X103983840Y-84379629D01*
X104010410Y-84428288D01*
X104005426Y-84497980D01*
X103984362Y-84530781D01*
X103985899Y-84531974D01*
X103981115Y-84538140D01*
X103897455Y-84679603D01*
X103897454Y-84679605D01*
X103878727Y-84744063D01*
X103847332Y-84797148D01*
X102710535Y-85933946D01*
X102623409Y-86021071D01*
X102623403Y-86021079D01*
X102554955Y-86123515D01*
X102554953Y-86123520D01*
X102521890Y-86203343D01*
X102521889Y-86203345D01*
X102507802Y-86237350D01*
X102506295Y-86244932D01*
X102506295Y-86244933D01*
X102496278Y-86295297D01*
X102493415Y-86309689D01*
X102461031Y-86371601D01*
X102400315Y-86406176D01*
X102371797Y-86409500D01*
X98482592Y-86409500D01*
X98452921Y-86415402D01*
X98423249Y-86421304D01*
X98388000Y-86428315D01*
X98361745Y-86433537D01*
X98341743Y-86441823D01*
X98328407Y-86447347D01*
X98247918Y-86480685D01*
X98247909Y-86480690D01*
X98203458Y-86510393D01*
X98203457Y-86510394D01*
X98145467Y-86549141D01*
X98145463Y-86549144D01*
X98120927Y-86573681D01*
X98059604Y-86607166D01*
X98033246Y-86610000D01*
X96642823Y-86610000D01*
X96603173Y-86633716D01*
X96546303Y-86634968D01*
X96513046Y-86627900D01*
X96323754Y-86627900D01*
X96309852Y-86630855D01*
X96138597Y-86667255D01*
X96138592Y-86667257D01*
X95965670Y-86744248D01*
X95965665Y-86744251D01*
X95812529Y-86855511D01*
X95685866Y-86996185D01*
X95591221Y-87160115D01*
X95591218Y-87160122D01*
X95532727Y-87340140D01*
X95532726Y-87340144D01*
X95512940Y-87528400D01*
X95532726Y-87716656D01*
X95532727Y-87716659D01*
X95591218Y-87896677D01*
X95591220Y-87896681D01*
X95591221Y-87896684D01*
X95602842Y-87916812D01*
X95608667Y-87926901D01*
X95625138Y-87994802D01*
X95602286Y-88060828D01*
X95547364Y-88104018D01*
X95501279Y-88112900D01*
X92705699Y-88112900D01*
X92638660Y-88093215D01*
X92592905Y-88040411D01*
X92581699Y-87988900D01*
X92581699Y-86940529D01*
X92581698Y-86940523D01*
X92581697Y-86940516D01*
X92575291Y-86880917D01*
X92571965Y-86872000D01*
X92524997Y-86746071D01*
X92524993Y-86746064D01*
X92438747Y-86630855D01*
X92438744Y-86630852D01*
X92323535Y-86544606D01*
X92323528Y-86544602D01*
X92188682Y-86494308D01*
X92188683Y-86494308D01*
X92129083Y-86487901D01*
X92129081Y-86487900D01*
X92129073Y-86487900D01*
X92129064Y-86487900D01*
X89633329Y-86487900D01*
X89633323Y-86487901D01*
X89573716Y-86494308D01*
X89438871Y-86544602D01*
X89438864Y-86544606D01*
X89323655Y-86630852D01*
X89323652Y-86630855D01*
X89237406Y-86746064D01*
X89237402Y-86746071D01*
X89187108Y-86880917D01*
X89184160Y-86908344D01*
X89180701Y-86940523D01*
X89180700Y-86940535D01*
X89180700Y-90536270D01*
X89180701Y-90536276D01*
X89187108Y-90595883D01*
X89237402Y-90730728D01*
X89237406Y-90730735D01*
X89323652Y-90845944D01*
X89323655Y-90845947D01*
X89438864Y-90932193D01*
X89438871Y-90932197D01*
X89573717Y-90982491D01*
X89573716Y-90982491D01*
X89580644Y-90983235D01*
X89633327Y-90988900D01*
X92129072Y-90988899D01*
X92188683Y-90982491D01*
X92323531Y-90932196D01*
X92438746Y-90845946D01*
X92524996Y-90730731D01*
X92575291Y-90595883D01*
X92581700Y-90536273D01*
X92581700Y-89487900D01*
X92601385Y-89420861D01*
X92654189Y-89375106D01*
X92705700Y-89363900D01*
X95151100Y-89363900D01*
X95218139Y-89383585D01*
X95263894Y-89436389D01*
X95275100Y-89487900D01*
X95275100Y-89907318D01*
X95285555Y-89994382D01*
X95285555Y-89994383D01*
X95340194Y-90132938D01*
X95340221Y-90132973D01*
X95340235Y-90133012D01*
X95344352Y-90140333D01*
X95343253Y-90140950D01*
X95365045Y-90198284D01*
X95350618Y-90266648D01*
X95301521Y-90316360D01*
X95241418Y-90331900D01*
X93929941Y-90331900D01*
X93929921Y-90331899D01*
X93923807Y-90331899D01*
X93800594Y-90331899D01*
X93800592Y-90331899D01*
X93736677Y-90344613D01*
X93703231Y-90351266D01*
X93679748Y-90355937D01*
X93679747Y-90355937D01*
X93679744Y-90355938D01*
X93679741Y-90355939D01*
X93647462Y-90369309D01*
X93632597Y-90375467D01*
X93565919Y-90403085D01*
X93565917Y-90403086D01*
X93463466Y-90471541D01*
X92277599Y-91657408D01*
X92216276Y-91690893D01*
X92176665Y-91693016D01*
X92129073Y-91687900D01*
X92129065Y-91687900D01*
X89633329Y-91687900D01*
X89633323Y-91687901D01*
X89573716Y-91694308D01*
X89438871Y-91744602D01*
X89438864Y-91744606D01*
X89323655Y-91830852D01*
X89323652Y-91830855D01*
X89237406Y-91946064D01*
X89237402Y-91946071D01*
X89187108Y-92080917D01*
X89180701Y-92140516D01*
X89180700Y-92140535D01*
X89180700Y-95736270D01*
X89180701Y-95736276D01*
X89187108Y-95795883D01*
X89237402Y-95930728D01*
X89237406Y-95930735D01*
X89323652Y-96045944D01*
X89323655Y-96045947D01*
X89438864Y-96132193D01*
X89438871Y-96132197D01*
X89573717Y-96182491D01*
X89573716Y-96182491D01*
X89580644Y-96183235D01*
X89633327Y-96188900D01*
X92129072Y-96188899D01*
X92188683Y-96182491D01*
X92323531Y-96132196D01*
X92438746Y-96045946D01*
X92524996Y-95930731D01*
X92549047Y-95866245D01*
X92590915Y-95810314D01*
X92656379Y-95785896D01*
X92724653Y-95800747D01*
X92752909Y-95821899D01*
X95038428Y-98107419D01*
X95071913Y-98168742D01*
X95066929Y-98238434D01*
X95025057Y-98294367D01*
X94959593Y-98318784D01*
X94950747Y-98319100D01*
X94047329Y-98319100D01*
X94047323Y-98319101D01*
X93987716Y-98325508D01*
X93852871Y-98375802D01*
X93852864Y-98375806D01*
X93737655Y-98462052D01*
X93737652Y-98462055D01*
X93651406Y-98577264D01*
X93651402Y-98577271D01*
X93601108Y-98712117D01*
X93594701Y-98771716D01*
X93594700Y-98771735D01*
X93594700Y-100567470D01*
X93594701Y-100567476D01*
X93601108Y-100627083D01*
X93651402Y-100761928D01*
X93651406Y-100761935D01*
X93737652Y-100877144D01*
X93737655Y-100877147D01*
X93852864Y-100963393D01*
X93852871Y-100963397D01*
X93987717Y-101013691D01*
X93987716Y-101013691D01*
X93994644Y-101014435D01*
X94047327Y-101020100D01*
X95843072Y-101020099D01*
X95902683Y-101013691D01*
X96037531Y-100963396D01*
X96152746Y-100877146D01*
X96238996Y-100761931D01*
X96288010Y-100630516D01*
X96329881Y-100574584D01*
X96395345Y-100550166D01*
X96463618Y-100565017D01*
X96491873Y-100586169D01*
X96613799Y-100708095D01*
X96696069Y-100765701D01*
X96807365Y-100843632D01*
X96807367Y-100843633D01*
X96807370Y-100843635D01*
X97021537Y-100943503D01*
X97249792Y-101004663D01*
X97426234Y-101020100D01*
X97485199Y-101025259D01*
X97485200Y-101025259D01*
X97485201Y-101025259D01*
X97544166Y-101020100D01*
X97720608Y-101004663D01*
X97948863Y-100943503D01*
X98163030Y-100843635D01*
X98356601Y-100708095D01*
X98523695Y-100541001D01*
X98653625Y-100355442D01*
X98708202Y-100311817D01*
X98777700Y-100304623D01*
X98840055Y-100336146D01*
X98856775Y-100355442D01*
X98986481Y-100540682D01*
X98986705Y-100541001D01*
X99153799Y-100708095D01*
X99236069Y-100765701D01*
X99347365Y-100843632D01*
X99347367Y-100843633D01*
X99347370Y-100843635D01*
X99561537Y-100943503D01*
X99789792Y-101004663D01*
X99966234Y-101020100D01*
X100025199Y-101025259D01*
X100025200Y-101025259D01*
X100025201Y-101025259D01*
X100084166Y-101020100D01*
X100260608Y-101004663D01*
X100488863Y-100943503D01*
X100703030Y-100843635D01*
X100896601Y-100708095D01*
X101063695Y-100541001D01*
X101193625Y-100355442D01*
X101248202Y-100311817D01*
X101317700Y-100304623D01*
X101380055Y-100336146D01*
X101396775Y-100355442D01*
X101526481Y-100540682D01*
X101526705Y-100541001D01*
X101693799Y-100708095D01*
X101776069Y-100765701D01*
X101887365Y-100843632D01*
X101887367Y-100843633D01*
X101887370Y-100843635D01*
X102101537Y-100943503D01*
X102329792Y-101004663D01*
X102506234Y-101020100D01*
X102565199Y-101025259D01*
X102565200Y-101025259D01*
X102565201Y-101025259D01*
X102624166Y-101020100D01*
X102800608Y-101004663D01*
X103028863Y-100943503D01*
X103243030Y-100843635D01*
X103436601Y-100708095D01*
X103603695Y-100541001D01*
X103733625Y-100355442D01*
X103788202Y-100311817D01*
X103857700Y-100304623D01*
X103920055Y-100336146D01*
X103936775Y-100355442D01*
X104066481Y-100540682D01*
X104066705Y-100541001D01*
X104233799Y-100708095D01*
X104316069Y-100765701D01*
X104427365Y-100843632D01*
X104427367Y-100843633D01*
X104427370Y-100843635D01*
X104641537Y-100943503D01*
X104869792Y-101004663D01*
X105046234Y-101020100D01*
X105105199Y-101025259D01*
X105105200Y-101025259D01*
X105105201Y-101025259D01*
X105164166Y-101020100D01*
X105340608Y-101004663D01*
X105568863Y-100943503D01*
X105783030Y-100843635D01*
X105976601Y-100708095D01*
X106143695Y-100541001D01*
X106273625Y-100355442D01*
X106328202Y-100311817D01*
X106397700Y-100304623D01*
X106460055Y-100336146D01*
X106476775Y-100355442D01*
X106606481Y-100540682D01*
X106606705Y-100541001D01*
X106773799Y-100708095D01*
X106856069Y-100765701D01*
X106967365Y-100843632D01*
X106967367Y-100843633D01*
X106967370Y-100843635D01*
X107181537Y-100943503D01*
X107409792Y-101004663D01*
X107586234Y-101020100D01*
X107645199Y-101025259D01*
X107645200Y-101025259D01*
X107645201Y-101025259D01*
X107704166Y-101020100D01*
X107880608Y-101004663D01*
X108108863Y-100943503D01*
X108323030Y-100843635D01*
X108516601Y-100708095D01*
X108683695Y-100541001D01*
X108813625Y-100355442D01*
X108868202Y-100311817D01*
X108937700Y-100304623D01*
X109000055Y-100336146D01*
X109016775Y-100355442D01*
X109146481Y-100540682D01*
X109146705Y-100541001D01*
X109313799Y-100708095D01*
X109396069Y-100765701D01*
X109507365Y-100843632D01*
X109507367Y-100843633D01*
X109507370Y-100843635D01*
X109721537Y-100943503D01*
X109949792Y-101004663D01*
X110126234Y-101020100D01*
X110185199Y-101025259D01*
X110185200Y-101025259D01*
X110185201Y-101025259D01*
X110244166Y-101020100D01*
X110420608Y-101004663D01*
X110648863Y-100943503D01*
X110863030Y-100843635D01*
X111056601Y-100708095D01*
X111223695Y-100541001D01*
X111353625Y-100355442D01*
X111408202Y-100311817D01*
X111477700Y-100304623D01*
X111540055Y-100336146D01*
X111556775Y-100355442D01*
X111686481Y-100540682D01*
X111686705Y-100541001D01*
X111853799Y-100708095D01*
X111936069Y-100765701D01*
X112047365Y-100843632D01*
X112047367Y-100843633D01*
X112047370Y-100843635D01*
X112261537Y-100943503D01*
X112489792Y-101004663D01*
X112666234Y-101020100D01*
X112725199Y-101025259D01*
X112725200Y-101025259D01*
X112725201Y-101025259D01*
X112784166Y-101020100D01*
X112960608Y-101004663D01*
X113188863Y-100943503D01*
X113403030Y-100843635D01*
X113596601Y-100708095D01*
X113763695Y-100541001D01*
X113893930Y-100355005D01*
X113948507Y-100311381D01*
X114018005Y-100304187D01*
X114080360Y-100335710D01*
X114097079Y-100355005D01*
X114227090Y-100540678D01*
X114394117Y-100707705D01*
X114587621Y-100843200D01*
X114801707Y-100943029D01*
X114801716Y-100943033D01*
X115015200Y-101000234D01*
X115015200Y-100102612D01*
X115072207Y-100135525D01*
X115199374Y-100169600D01*
X115331026Y-100169600D01*
X115458193Y-100135525D01*
X115515200Y-100102612D01*
X115515200Y-101000233D01*
X115728683Y-100943033D01*
X115728692Y-100943029D01*
X115942778Y-100843200D01*
X116136282Y-100707705D01*
X116303305Y-100540682D01*
X116438800Y-100347178D01*
X116538629Y-100133092D01*
X116538632Y-100133086D01*
X116595836Y-99919600D01*
X115698212Y-99919600D01*
X115731125Y-99862593D01*
X115765200Y-99735426D01*
X115765200Y-99603774D01*
X115731125Y-99476607D01*
X115698212Y-99419600D01*
X116595836Y-99419600D01*
X116595835Y-99419599D01*
X116538632Y-99206113D01*
X116538629Y-99206107D01*
X116438800Y-98992022D01*
X116438799Y-98992020D01*
X116303313Y-98798526D01*
X116303308Y-98798520D01*
X116136282Y-98631494D01*
X115942778Y-98495999D01*
X115728692Y-98396170D01*
X115728686Y-98396167D01*
X115515200Y-98338964D01*
X115515200Y-99236588D01*
X115458193Y-99203675D01*
X115331026Y-99169600D01*
X115199374Y-99169600D01*
X115072207Y-99203675D01*
X115015200Y-99236588D01*
X115015200Y-98338964D01*
X115015199Y-98338964D01*
X114801713Y-98396167D01*
X114801707Y-98396170D01*
X114587622Y-98495999D01*
X114587620Y-98496000D01*
X114394126Y-98631486D01*
X114394120Y-98631491D01*
X114227091Y-98798520D01*
X114227090Y-98798522D01*
X114097080Y-98984195D01*
X114042503Y-99027819D01*
X113973004Y-99035012D01*
X113910650Y-99003490D01*
X113893930Y-98984194D01*
X113763694Y-98798197D01*
X113596602Y-98631106D01*
X113596595Y-98631101D01*
X113403034Y-98495567D01*
X113403030Y-98495565D01*
X113344399Y-98468225D01*
X113188863Y-98395697D01*
X113188859Y-98395696D01*
X113188855Y-98395694D01*
X112960613Y-98334538D01*
X112960603Y-98334536D01*
X112725201Y-98313941D01*
X112725199Y-98313941D01*
X112489796Y-98334536D01*
X112489786Y-98334538D01*
X112261544Y-98395694D01*
X112261535Y-98395698D01*
X112047371Y-98495564D01*
X112047369Y-98495565D01*
X111853797Y-98631105D01*
X111686705Y-98798197D01*
X111556775Y-98983758D01*
X111502198Y-99027383D01*
X111432700Y-99034577D01*
X111370345Y-99003054D01*
X111353625Y-98983758D01*
X111223694Y-98798197D01*
X111056602Y-98631106D01*
X111056601Y-98631105D01*
X110887320Y-98512573D01*
X110863576Y-98495947D01*
X110819951Y-98441370D01*
X110810700Y-98394372D01*
X110810700Y-97760937D01*
X110830385Y-97693898D01*
X110883189Y-97648143D01*
X110952347Y-97638199D01*
X110960480Y-97639647D01*
X110967989Y-97641243D01*
X111004954Y-97649100D01*
X111004955Y-97649100D01*
X111194244Y-97649100D01*
X111194246Y-97649100D01*
X111379403Y-97609744D01*
X111552330Y-97532751D01*
X111705471Y-97421488D01*
X111708388Y-97418247D01*
X111711200Y-97415126D01*
X111770687Y-97378479D01*
X111803348Y-97374100D01*
X115072808Y-97374100D01*
X115072808Y-97374099D01*
X115149676Y-97358810D01*
X115149677Y-97358810D01*
X115171968Y-97354375D01*
X115193652Y-97350063D01*
X115243696Y-97329334D01*
X115307486Y-97302912D01*
X115366925Y-97263195D01*
X115409933Y-97234458D01*
X115497058Y-97147333D01*
X115497059Y-97147331D01*
X115504125Y-97140265D01*
X115504127Y-97140261D01*
X117367571Y-95276819D01*
X117428894Y-95243334D01*
X117455252Y-95240500D01*
X117779965Y-95240500D01*
X117847004Y-95260185D01*
X117892759Y-95312989D01*
X117902703Y-95382147D01*
X117901582Y-95388694D01*
X117898619Y-95403588D01*
X117898618Y-95403587D01*
X117890900Y-95442389D01*
X117890900Y-97319912D01*
X117871215Y-97386951D01*
X117859050Y-97402884D01*
X117783866Y-97486384D01*
X117689221Y-97650315D01*
X117689218Y-97650322D01*
X117630727Y-97830340D01*
X117630726Y-97830344D01*
X117610940Y-98018600D01*
X117630726Y-98206856D01*
X117630727Y-98206859D01*
X117689218Y-98386877D01*
X117689221Y-98386884D01*
X117783867Y-98550816D01*
X117856510Y-98631494D01*
X117910529Y-98691488D01*
X118063665Y-98802748D01*
X118063670Y-98802751D01*
X118236592Y-98879742D01*
X118236597Y-98879744D01*
X118421754Y-98919100D01*
X118421755Y-98919100D01*
X118611044Y-98919100D01*
X118611046Y-98919100D01*
X118796203Y-98879744D01*
X118969130Y-98802751D01*
X119122271Y-98691488D01*
X119248933Y-98550816D01*
X119343579Y-98386884D01*
X119402074Y-98206856D01*
X119421860Y-98018600D01*
X119402074Y-97830344D01*
X119343579Y-97650316D01*
X119248933Y-97486384D01*
X119205016Y-97437609D01*
X119173750Y-97402884D01*
X119143520Y-97339892D01*
X119141900Y-97319912D01*
X119141900Y-95814500D01*
X119161585Y-95747461D01*
X119214389Y-95701706D01*
X119265900Y-95690500D01*
X125842752Y-95690500D01*
X125909791Y-95710185D01*
X125930433Y-95726819D01*
X126472381Y-96268767D01*
X126505866Y-96330090D01*
X126508700Y-96356448D01*
X126508700Y-98035107D01*
X126489015Y-98102146D01*
X126436211Y-98147901D01*
X126414073Y-98154786D01*
X126414221Y-98155336D01*
X126180744Y-98217894D01*
X126180735Y-98217898D01*
X125966571Y-98317764D01*
X125966569Y-98317765D01*
X125772997Y-98453305D01*
X125605908Y-98620394D01*
X125475669Y-98806395D01*
X125421092Y-98850019D01*
X125351593Y-98857212D01*
X125289239Y-98825690D01*
X125272519Y-98806394D01*
X125142513Y-98620726D01*
X125142508Y-98620720D01*
X124975482Y-98453694D01*
X124781978Y-98318199D01*
X124567892Y-98218370D01*
X124567886Y-98218367D01*
X124354400Y-98161164D01*
X124354400Y-99058788D01*
X124297393Y-99025875D01*
X124170226Y-98991800D01*
X124038574Y-98991800D01*
X123911407Y-99025875D01*
X123854400Y-99058788D01*
X123854400Y-98161164D01*
X123854399Y-98161164D01*
X123640913Y-98218367D01*
X123640907Y-98218370D01*
X123426822Y-98318199D01*
X123426820Y-98318200D01*
X123233326Y-98453686D01*
X123111265Y-98575747D01*
X123049942Y-98609231D01*
X122980250Y-98604247D01*
X122924317Y-98562375D01*
X122907402Y-98531398D01*
X122894029Y-98495544D01*
X122860600Y-98405915D01*
X122858197Y-98399471D01*
X122858193Y-98399464D01*
X122771947Y-98284255D01*
X122771944Y-98284252D01*
X122656735Y-98198006D01*
X122656728Y-98198002D01*
X122521882Y-98147708D01*
X122521883Y-98147708D01*
X122462283Y-98141301D01*
X122462281Y-98141300D01*
X122462273Y-98141300D01*
X122462264Y-98141300D01*
X120666529Y-98141300D01*
X120666523Y-98141301D01*
X120606916Y-98147708D01*
X120472071Y-98198002D01*
X120472064Y-98198006D01*
X120356855Y-98284252D01*
X120356852Y-98284255D01*
X120270606Y-98399464D01*
X120270602Y-98399471D01*
X120220308Y-98534317D01*
X120213901Y-98593916D01*
X120213900Y-98593935D01*
X120213900Y-100389670D01*
X120213901Y-100389676D01*
X120220308Y-100449283D01*
X120270602Y-100584128D01*
X120270606Y-100584135D01*
X120356852Y-100699344D01*
X120356855Y-100699347D01*
X120472064Y-100785593D01*
X120472071Y-100785597D01*
X120606917Y-100835891D01*
X120606916Y-100835891D01*
X120613844Y-100836635D01*
X120666527Y-100842300D01*
X122462272Y-100842299D01*
X122521883Y-100835891D01*
X122656731Y-100785596D01*
X122771946Y-100699346D01*
X122858196Y-100584131D01*
X122907402Y-100452201D01*
X122949272Y-100396268D01*
X123014737Y-100371850D01*
X123083010Y-100386701D01*
X123111265Y-100407853D01*
X123233317Y-100529905D01*
X123426821Y-100665400D01*
X123640907Y-100765229D01*
X123640916Y-100765233D01*
X123854400Y-100822434D01*
X123854400Y-99924812D01*
X123911407Y-99957725D01*
X124038574Y-99991800D01*
X124170226Y-99991800D01*
X124297393Y-99957725D01*
X124354400Y-99924812D01*
X124354400Y-100822433D01*
X124567883Y-100765233D01*
X124567892Y-100765229D01*
X124781978Y-100665400D01*
X124975482Y-100529905D01*
X125142505Y-100362882D01*
X125272519Y-100177205D01*
X125327096Y-100133581D01*
X125396595Y-100126388D01*
X125458949Y-100157910D01*
X125475669Y-100177205D01*
X125605905Y-100363201D01*
X125772999Y-100530295D01*
X125852795Y-100586169D01*
X125966565Y-100665832D01*
X125966567Y-100665833D01*
X125966570Y-100665835D01*
X126180737Y-100765703D01*
X126408992Y-100826863D01*
X126585434Y-100842300D01*
X126644399Y-100847459D01*
X126644400Y-100847459D01*
X126644401Y-100847459D01*
X126683634Y-100844026D01*
X126879808Y-100826863D01*
X127108063Y-100765703D01*
X127322230Y-100665835D01*
X127515801Y-100530295D01*
X127515820Y-100530275D01*
X127516174Y-100529980D01*
X127516380Y-100529889D01*
X127520236Y-100527190D01*
X127520777Y-100527963D01*
X127580176Y-100501954D01*
X127649171Y-100512979D01*
X127683581Y-100537272D01*
X128208715Y-101062406D01*
X128208744Y-101062437D01*
X128298963Y-101152656D01*
X128298966Y-101152658D01*
X128375889Y-101204056D01*
X128401409Y-101221109D01*
X128401411Y-101221110D01*
X128401414Y-101221112D01*
X128468095Y-101248731D01*
X128468097Y-101248733D01*
X128508339Y-101265401D01*
X128515247Y-101268263D01*
X128575670Y-101280281D01*
X128636092Y-101292300D01*
X129732708Y-101292300D01*
X129793130Y-101280281D01*
X129853553Y-101268263D01*
X129853556Y-101268261D01*
X129853559Y-101268261D01*
X129886888Y-101254454D01*
X129886887Y-101254454D01*
X129886893Y-101254452D01*
X129967387Y-101221112D01*
X130018610Y-101186884D01*
X130069834Y-101152658D01*
X130156959Y-101065533D01*
X130156960Y-101065531D01*
X130164026Y-101058465D01*
X130164029Y-101058461D01*
X130758129Y-100464361D01*
X130758133Y-100464359D01*
X130845258Y-100377234D01*
X130913711Y-100274787D01*
X130913712Y-100274786D01*
X130913713Y-100274783D01*
X130913715Y-100274780D01*
X130926189Y-100244663D01*
X130952583Y-100180942D01*
X130960863Y-100160953D01*
X130984900Y-100040107D01*
X130984900Y-96160194D01*
X130982870Y-96149990D01*
X130977521Y-96123100D01*
X130969186Y-96081193D01*
X130967483Y-96044041D01*
X130969756Y-96022416D01*
X130978860Y-95935800D01*
X130959074Y-95747544D01*
X130900579Y-95567516D01*
X130805933Y-95403584D01*
X130679271Y-95262912D01*
X130679270Y-95262911D01*
X130526134Y-95151651D01*
X130526129Y-95151648D01*
X130353207Y-95074657D01*
X130353202Y-95074655D01*
X130197756Y-95041615D01*
X130168046Y-95035300D01*
X129978754Y-95035300D01*
X129949044Y-95041615D01*
X129793597Y-95074655D01*
X129793592Y-95074657D01*
X129620670Y-95151648D01*
X129620665Y-95151651D01*
X129467529Y-95262911D01*
X129340866Y-95403585D01*
X129246221Y-95567515D01*
X129246218Y-95567522D01*
X129191388Y-95736273D01*
X129187726Y-95747544D01*
X129167940Y-95935800D01*
X129187726Y-96124056D01*
X129187727Y-96124059D01*
X129246218Y-96304077D01*
X129246220Y-96304081D01*
X129246221Y-96304084D01*
X129340867Y-96468016D01*
X129415761Y-96551194D01*
X129467529Y-96608688D01*
X129620668Y-96719950D01*
X129620669Y-96719951D01*
X129660335Y-96737611D01*
X129713572Y-96782861D01*
X129733894Y-96849710D01*
X129733900Y-96850891D01*
X129733900Y-98079296D01*
X129714215Y-98146335D01*
X129661411Y-98192090D01*
X129592253Y-98202034D01*
X129577808Y-98199071D01*
X129419816Y-98156739D01*
X129419812Y-98156738D01*
X129419808Y-98156737D01*
X129419806Y-98156736D01*
X129419803Y-98156736D01*
X129184401Y-98136141D01*
X129184399Y-98136141D01*
X128948996Y-98156736D01*
X128948986Y-98156738D01*
X128848526Y-98183656D01*
X128778676Y-98181993D01*
X128728752Y-98151562D01*
X128246019Y-97668828D01*
X128212534Y-97607505D01*
X128209700Y-97581147D01*
X128209700Y-95797993D01*
X128209699Y-95797989D01*
X128191299Y-95705485D01*
X128185663Y-95677148D01*
X128138511Y-95563314D01*
X128138510Y-95563313D01*
X128138507Y-95563307D01*
X128070058Y-95460867D01*
X128070055Y-95460863D01*
X127979837Y-95370645D01*
X127979806Y-95370616D01*
X126829798Y-94220608D01*
X126829778Y-94220586D01*
X126738336Y-94129144D01*
X126738332Y-94129141D01*
X126674144Y-94086252D01*
X126637269Y-94061612D01*
X126635885Y-94060687D01*
X126589985Y-94041675D01*
X126544084Y-94022663D01*
X126544082Y-94022661D01*
X126522058Y-94013539D01*
X126522054Y-94013537D01*
X126522052Y-94013537D01*
X126522048Y-94013536D01*
X126522044Y-94013535D01*
X126454029Y-94000006D01*
X126454028Y-94000006D01*
X126401211Y-93989500D01*
X126401207Y-93989500D01*
X126401206Y-93989500D01*
X125328777Y-93989500D01*
X125261738Y-93969815D01*
X125215983Y-93917011D01*
X125206039Y-93847853D01*
X125235064Y-93784297D01*
X125278341Y-93752221D01*
X125320394Y-93733497D01*
X125344530Y-93722751D01*
X125497671Y-93611488D01*
X125624333Y-93470816D01*
X125718979Y-93306884D01*
X125777474Y-93126856D01*
X125797260Y-92938600D01*
X125777474Y-92750344D01*
X125718979Y-92570316D01*
X125624333Y-92406384D01*
X125497671Y-92265712D01*
X125474808Y-92249101D01*
X125344532Y-92154450D01*
X125344529Y-92154448D01*
X125171607Y-92077457D01*
X125171602Y-92077455D01*
X125111535Y-92064688D01*
X125050053Y-92031496D01*
X125016277Y-91970333D01*
X125020929Y-91900618D01*
X125062534Y-91844486D01*
X125111535Y-91822108D01*
X125247803Y-91793144D01*
X125420730Y-91716151D01*
X125573871Y-91604888D01*
X125700533Y-91464216D01*
X125795179Y-91300284D01*
X125853674Y-91120256D01*
X125873460Y-90932000D01*
X125853674Y-90743744D01*
X125795179Y-90563716D01*
X125700533Y-90399784D01*
X125657058Y-90351500D01*
X125625350Y-90316284D01*
X125595120Y-90253292D01*
X125593500Y-90233312D01*
X125593500Y-89393593D01*
X125588211Y-89367007D01*
X125588210Y-89367001D01*
X125580307Y-89327265D01*
X125580307Y-89327264D01*
X125569464Y-89272755D01*
X125569463Y-89272748D01*
X125523148Y-89160934D01*
X125522312Y-89158915D01*
X125497854Y-89122312D01*
X125453858Y-89056467D01*
X125453856Y-89056464D01*
X125363637Y-88966245D01*
X125363606Y-88966216D01*
X124931069Y-88533679D01*
X124897584Y-88472356D01*
X124902568Y-88402664D01*
X124944440Y-88346731D01*
X125009904Y-88322314D01*
X125018750Y-88321998D01*
X125020500Y-88321998D01*
X125020500Y-87372000D01*
X124258001Y-87372000D01*
X124258001Y-87561249D01*
X124238316Y-87628288D01*
X124185512Y-87674043D01*
X124116354Y-87683987D01*
X124052798Y-87654962D01*
X124046320Y-87648930D01*
X123269390Y-86872000D01*
X124258000Y-86872000D01*
X125020500Y-86872000D01*
X125020500Y-85922000D01*
X125020499Y-85921999D01*
X124958028Y-85922000D01*
X124958011Y-85922001D01*
X124855302Y-85932494D01*
X124688880Y-85987641D01*
X124688875Y-85987643D01*
X124539654Y-86079684D01*
X124415684Y-86203654D01*
X124323643Y-86352875D01*
X124323641Y-86352880D01*
X124268494Y-86519302D01*
X124268493Y-86519309D01*
X124258000Y-86622013D01*
X124258000Y-86872000D01*
X123269390Y-86872000D01*
X121204998Y-84807608D01*
X121204978Y-84807586D01*
X121110437Y-84713045D01*
X121110406Y-84713016D01*
X120816770Y-84419380D01*
X120783285Y-84358057D01*
X120788269Y-84288365D01*
X120830141Y-84232432D01*
X120895605Y-84208015D01*
X120904451Y-84207699D01*
X121218402Y-84207699D01*
X121218408Y-84207699D01*
X121321197Y-84197199D01*
X121487734Y-84142014D01*
X121637056Y-84049912D01*
X121731075Y-83955892D01*
X121792394Y-83922410D01*
X121862086Y-83927394D01*
X121906434Y-83955895D01*
X122000054Y-84049515D01*
X122149275Y-84141556D01*
X122149280Y-84141558D01*
X122315702Y-84196705D01*
X122315709Y-84196706D01*
X122418419Y-84207199D01*
X122480899Y-84207198D01*
X122480900Y-84207198D01*
X122480900Y-83257200D01*
X122980900Y-83257200D01*
X122980900Y-84207199D01*
X123043372Y-84207199D01*
X123043386Y-84207198D01*
X123146097Y-84196705D01*
X123312519Y-84141558D01*
X123312524Y-84141556D01*
X123461745Y-84049515D01*
X123585715Y-83925545D01*
X123677756Y-83776324D01*
X123677758Y-83776319D01*
X123732905Y-83609897D01*
X123732906Y-83609890D01*
X123743399Y-83507186D01*
X123743400Y-83507173D01*
X123743400Y-83257200D01*
X122980900Y-83257200D01*
X122480900Y-83257200D01*
X122480900Y-83181000D01*
X124338401Y-83181000D01*
X124338401Y-83430986D01*
X124348894Y-83533697D01*
X124404041Y-83700119D01*
X124404043Y-83700124D01*
X124496084Y-83849345D01*
X124620054Y-83973315D01*
X124769275Y-84065356D01*
X124769280Y-84065358D01*
X124935702Y-84120505D01*
X124935709Y-84120506D01*
X125038419Y-84130999D01*
X125100899Y-84130998D01*
X125100900Y-84130998D01*
X125100900Y-83181000D01*
X124338401Y-83181000D01*
X122480900Y-83181000D01*
X122480900Y-81807200D01*
X122980900Y-81807200D01*
X122980900Y-82757200D01*
X123743399Y-82757200D01*
X123743399Y-82507228D01*
X123743398Y-82507213D01*
X123732905Y-82404502D01*
X123677758Y-82238080D01*
X123677756Y-82238075D01*
X123585715Y-82088854D01*
X123461745Y-81964884D01*
X123312524Y-81872843D01*
X123312519Y-81872841D01*
X123146097Y-81817694D01*
X123146090Y-81817693D01*
X123043386Y-81807200D01*
X122980900Y-81807200D01*
X122480900Y-81807200D01*
X122480899Y-81807199D01*
X122418428Y-81807200D01*
X122418411Y-81807201D01*
X122315702Y-81817694D01*
X122149280Y-81872841D01*
X122149275Y-81872843D01*
X122000057Y-81964882D01*
X121906434Y-82058505D01*
X121845110Y-82091989D01*
X121775419Y-82087005D01*
X121731072Y-82058504D01*
X121637057Y-81964489D01*
X121637056Y-81964488D01*
X121518567Y-81891404D01*
X121487736Y-81872387D01*
X121487731Y-81872385D01*
X121486262Y-81871898D01*
X121321197Y-81817201D01*
X121321195Y-81817200D01*
X121218410Y-81806700D01*
X120593398Y-81806700D01*
X120593380Y-81806701D01*
X120490603Y-81817200D01*
X120490600Y-81817201D01*
X120324068Y-81872385D01*
X120324059Y-81872389D01*
X120194596Y-81952243D01*
X120127204Y-81970683D01*
X120060540Y-81949760D01*
X120015771Y-81896118D01*
X120005500Y-81846704D01*
X120005500Y-81517100D01*
X120025185Y-81450061D01*
X120077989Y-81404306D01*
X120129500Y-81393100D01*
X120312844Y-81393100D01*
X120312846Y-81393100D01*
X120498003Y-81353744D01*
X120670930Y-81276751D01*
X120824071Y-81165488D01*
X120826988Y-81162247D01*
X120829800Y-81159126D01*
X120889287Y-81122479D01*
X120921948Y-81118100D01*
X124427048Y-81118100D01*
X124494087Y-81137785D01*
X124514729Y-81154419D01*
X124918310Y-81558000D01*
X124951795Y-81619323D01*
X124946811Y-81689015D01*
X124904939Y-81744948D01*
X124869634Y-81763387D01*
X124769278Y-81796642D01*
X124769275Y-81796643D01*
X124620054Y-81888684D01*
X124496084Y-82012654D01*
X124404043Y-82161875D01*
X124404041Y-82161880D01*
X124348894Y-82328302D01*
X124348893Y-82328309D01*
X124338400Y-82431013D01*
X124338400Y-82681000D01*
X125476900Y-82681000D01*
X125543939Y-82700685D01*
X125589694Y-82753489D01*
X125600900Y-82805000D01*
X125600900Y-84130999D01*
X125663372Y-84130999D01*
X125663386Y-84130998D01*
X125766096Y-84120505D01*
X125813774Y-84104706D01*
X125883603Y-84102303D01*
X125936859Y-84133995D01*
X125950407Y-84073118D01*
X125993859Y-84027524D01*
X126081741Y-83973318D01*
X126175364Y-83879695D01*
X126236687Y-83846210D01*
X126306379Y-83851194D01*
X126350727Y-83879695D01*
X126444744Y-83973712D01*
X126461199Y-83983861D01*
X126463630Y-83985361D01*
X126510355Y-84037309D01*
X126521578Y-84106271D01*
X126493734Y-84170354D01*
X126435666Y-84209210D01*
X126398534Y-84214900D01*
X126270354Y-84214900D01*
X126114170Y-84248097D01*
X126084735Y-84254354D01*
X126015068Y-84249037D01*
X125973022Y-84217247D01*
X125967280Y-84270012D01*
X125923369Y-84324359D01*
X125914790Y-84329793D01*
X125912271Y-84331247D01*
X125759129Y-84442511D01*
X125632466Y-84583185D01*
X125537821Y-84747115D01*
X125537818Y-84747122D01*
X125485792Y-84907243D01*
X125479326Y-84927144D01*
X125459540Y-85115400D01*
X125479326Y-85303656D01*
X125479327Y-85303659D01*
X125537818Y-85483677D01*
X125537821Y-85483684D01*
X125632467Y-85647616D01*
X125678411Y-85698642D01*
X125694352Y-85716346D01*
X125724582Y-85779337D01*
X125715957Y-85848673D01*
X125671215Y-85902338D01*
X125604563Y-85923296D01*
X125589602Y-85922676D01*
X125582993Y-85922001D01*
X125582974Y-85922000D01*
X125520500Y-85922000D01*
X125520500Y-88321999D01*
X125582972Y-88321999D01*
X125582986Y-88321998D01*
X125685697Y-88311505D01*
X125852119Y-88256358D01*
X125852124Y-88256356D01*
X126001342Y-88164317D01*
X126094964Y-88070695D01*
X126156287Y-88037210D01*
X126225979Y-88042194D01*
X126270327Y-88070695D01*
X126364344Y-88164712D01*
X126411096Y-88193548D01*
X126457820Y-88245494D01*
X126470000Y-88299087D01*
X126470000Y-89082511D01*
X126494035Y-89203344D01*
X126494040Y-89203361D01*
X126541185Y-89317181D01*
X126541188Y-89317186D01*
X126562801Y-89349531D01*
X126562802Y-89349534D01*
X126562803Y-89349534D01*
X126609641Y-89419632D01*
X126609644Y-89419636D01*
X126696764Y-89506756D01*
X126696767Y-89506758D01*
X126733847Y-89531534D01*
X126799214Y-89575212D01*
X126877914Y-89607810D01*
X126913048Y-89622363D01*
X126973471Y-89634381D01*
X127033893Y-89646400D01*
X127157107Y-89646400D01*
X127217529Y-89634381D01*
X127277952Y-89622363D01*
X127313086Y-89607810D01*
X127366373Y-89585737D01*
X127413823Y-89576300D01*
X135005348Y-89576300D01*
X135072387Y-89595985D01*
X135093029Y-89612619D01*
X135133962Y-89653552D01*
X135167447Y-89714875D01*
X135166056Y-89773326D01*
X135139138Y-89873786D01*
X135139136Y-89873796D01*
X135118541Y-90109199D01*
X135118541Y-90109200D01*
X135139136Y-90344603D01*
X135139138Y-90344613D01*
X135200294Y-90572855D01*
X135200296Y-90572859D01*
X135200297Y-90572863D01*
X135279980Y-90743744D01*
X135300165Y-90787030D01*
X135300167Y-90787034D01*
X135341417Y-90845944D01*
X135435705Y-90980601D01*
X135602799Y-91147695D01*
X135769449Y-91264385D01*
X135788794Y-91277930D01*
X135832419Y-91332507D01*
X135839613Y-91402005D01*
X135808090Y-91464360D01*
X135788795Y-91481080D01*
X135603122Y-91611090D01*
X135603120Y-91611091D01*
X135436091Y-91778120D01*
X135436086Y-91778126D01*
X135300600Y-91971620D01*
X135300599Y-91971622D01*
X135200770Y-92185707D01*
X135200767Y-92185713D01*
X135143564Y-92399199D01*
X135143564Y-92399200D01*
X136041188Y-92399200D01*
X136008275Y-92456207D01*
X135974200Y-92583374D01*
X135974200Y-92715026D01*
X136008275Y-92842193D01*
X136041188Y-92899200D01*
X135143564Y-92899200D01*
X135200767Y-93112686D01*
X135200770Y-93112692D01*
X135300599Y-93326778D01*
X135436094Y-93520282D01*
X135558146Y-93642334D01*
X135591631Y-93703657D01*
X135586647Y-93773349D01*
X135544775Y-93829282D01*
X135513798Y-93846197D01*
X135381871Y-93895402D01*
X135381864Y-93895406D01*
X135266655Y-93981652D01*
X135266652Y-93981655D01*
X135180406Y-94096864D01*
X135180402Y-94096871D01*
X135130108Y-94231717D01*
X135123930Y-94289189D01*
X135123701Y-94291323D01*
X135123700Y-94291335D01*
X135123700Y-96087070D01*
X135123701Y-96087076D01*
X135130108Y-96146683D01*
X135180402Y-96281528D01*
X135180406Y-96281535D01*
X135266652Y-96396744D01*
X135266655Y-96396747D01*
X135381864Y-96482993D01*
X135381871Y-96482997D01*
X135516717Y-96533291D01*
X135516716Y-96533291D01*
X135523644Y-96534035D01*
X135576327Y-96539700D01*
X137372072Y-96539699D01*
X137431683Y-96533291D01*
X137566531Y-96482996D01*
X137681746Y-96396746D01*
X137767996Y-96281531D01*
X137818291Y-96146683D01*
X137824700Y-96087073D01*
X137824699Y-94291328D01*
X137818291Y-94231717D01*
X137814139Y-94220586D01*
X137767997Y-94096871D01*
X137767993Y-94096864D01*
X137681747Y-93981655D01*
X137681744Y-93981652D01*
X137566535Y-93895406D01*
X137566528Y-93895402D01*
X137434601Y-93846197D01*
X137378667Y-93804326D01*
X137354250Y-93738862D01*
X137369102Y-93670589D01*
X137390253Y-93642333D01*
X137512308Y-93520278D01*
X137647800Y-93326778D01*
X137747629Y-93112692D01*
X137747632Y-93112686D01*
X137804836Y-92899200D01*
X136907212Y-92899200D01*
X136940125Y-92842193D01*
X136974200Y-92715026D01*
X136974200Y-92583374D01*
X136940125Y-92456207D01*
X136907212Y-92399200D01*
X137804836Y-92399200D01*
X137804835Y-92399199D01*
X137747632Y-92185713D01*
X137747629Y-92185707D01*
X137647800Y-91971622D01*
X137647799Y-91971620D01*
X137512313Y-91778126D01*
X137512308Y-91778120D01*
X137345278Y-91611090D01*
X137159605Y-91481079D01*
X137115980Y-91426502D01*
X137108788Y-91357004D01*
X137140310Y-91294649D01*
X137159606Y-91277930D01*
X137345601Y-91147695D01*
X137512695Y-90980601D01*
X137648235Y-90787030D01*
X137748103Y-90572863D01*
X137809263Y-90344608D01*
X137829859Y-90109200D01*
X137809263Y-89873792D01*
X137748103Y-89645537D01*
X137648235Y-89431371D01*
X137648232Y-89431366D01*
X137512694Y-89237797D01*
X137345602Y-89070706D01*
X137345596Y-89070701D01*
X137160042Y-88940775D01*
X137116417Y-88886198D01*
X137109223Y-88816700D01*
X137140746Y-88754345D01*
X137160042Y-88737625D01*
X137216545Y-88698061D01*
X137345601Y-88607695D01*
X137512695Y-88440601D01*
X137648235Y-88247030D01*
X137748103Y-88032863D01*
X137809263Y-87804608D01*
X137829859Y-87569200D01*
X137809263Y-87333792D01*
X137782343Y-87233325D01*
X137784006Y-87163476D01*
X137814435Y-87113553D01*
X138371064Y-86556925D01*
X138371071Y-86556919D01*
X138378131Y-86549858D01*
X138378133Y-86549858D01*
X138421438Y-86506553D01*
X138482761Y-86473068D01*
X138552453Y-86478052D01*
X138608386Y-86519924D01*
X138632803Y-86585388D01*
X138633119Y-86594234D01*
X138633119Y-98678438D01*
X138613434Y-98745477D01*
X138596800Y-98766119D01*
X135545238Y-101817681D01*
X135483915Y-101851166D01*
X135457557Y-101854000D01*
X91592881Y-101854000D01*
X91525842Y-101834315D01*
X91505200Y-101817681D01*
X88174238Y-98486719D01*
X88140753Y-98425396D01*
X88137919Y-98399038D01*
X88137919Y-86109998D01*
X96651904Y-86109998D01*
X96651905Y-86110000D01*
X97699200Y-86110000D01*
X97699200Y-85340000D01*
X98199200Y-85340000D01*
X98199200Y-86110000D01*
X99246495Y-86110000D01*
X99246495Y-86109998D01*
X99246300Y-86107513D01*
X99200481Y-85949801D01*
X99116885Y-85808447D01*
X99112100Y-85802278D01*
X99114452Y-85800453D01*
X99087645Y-85751405D01*
X99092602Y-85681712D01*
X99113665Y-85648936D01*
X99112100Y-85647722D01*
X99116885Y-85641552D01*
X99200481Y-85500198D01*
X99246300Y-85342486D01*
X99246495Y-85340001D01*
X99246495Y-85340000D01*
X98199200Y-85340000D01*
X97699200Y-85340000D01*
X96651905Y-85340000D01*
X96651904Y-85340001D01*
X96652099Y-85342486D01*
X96697918Y-85500198D01*
X96781514Y-85641552D01*
X96786300Y-85647722D01*
X96783953Y-85649542D01*
X96810764Y-85698642D01*
X96805780Y-85768334D01*
X96784741Y-85801069D01*
X96786300Y-85802278D01*
X96781514Y-85808447D01*
X96697918Y-85949801D01*
X96652099Y-86107513D01*
X96651904Y-86109998D01*
X88137919Y-86109998D01*
X88137919Y-84839998D01*
X96651904Y-84839998D01*
X96651905Y-84840000D01*
X97699200Y-84840000D01*
X97699200Y-84070000D01*
X98199200Y-84070000D01*
X98199200Y-84840000D01*
X99246495Y-84840000D01*
X99246495Y-84839998D01*
X99246300Y-84837513D01*
X99200481Y-84679801D01*
X99116885Y-84538447D01*
X99112100Y-84532278D01*
X99114452Y-84530453D01*
X99087645Y-84481405D01*
X99092602Y-84411712D01*
X99113665Y-84378936D01*
X99112100Y-84377722D01*
X99116885Y-84371552D01*
X99200481Y-84230198D01*
X99246300Y-84072486D01*
X99246495Y-84070001D01*
X99246495Y-84070000D01*
X98199200Y-84070000D01*
X97699200Y-84070000D01*
X96651905Y-84070000D01*
X96651904Y-84070001D01*
X96652099Y-84072486D01*
X96697918Y-84230198D01*
X96781514Y-84371552D01*
X96786300Y-84377722D01*
X96783953Y-84379542D01*
X96810764Y-84428642D01*
X96805780Y-84498334D01*
X96784741Y-84531069D01*
X96786300Y-84532278D01*
X96781514Y-84538447D01*
X96697918Y-84679801D01*
X96652099Y-84837513D01*
X96651904Y-84839998D01*
X88137919Y-84839998D01*
X88137919Y-74828666D01*
X88157604Y-74761627D01*
X88173881Y-74741343D01*
X88210896Y-74704025D01*
X91200311Y-71690105D01*
X91261497Y-71656371D01*
X91288416Y-71653429D01*
X104970105Y-71661216D01*
G37*
%TD.AperFunction*%
%TA.AperFunction,Conductor*%
G36*
X99100615Y-93416385D02*
G01*
X99121257Y-93433019D01*
X100521044Y-94832806D01*
X100521073Y-94832837D01*
X100598836Y-94910600D01*
X100632321Y-94971923D01*
X100627337Y-95041615D01*
X100598836Y-95085962D01*
X100107055Y-95577744D01*
X99626469Y-96058330D01*
X99626467Y-96058332D01*
X99603606Y-96081193D01*
X99539342Y-96145456D01*
X99536316Y-96149985D01*
X99510316Y-96188898D01*
X99510315Y-96188899D01*
X99470890Y-96247900D01*
X99470885Y-96247909D01*
X99447618Y-96304083D01*
X99423738Y-96361734D01*
X99423735Y-96361746D01*
X99399700Y-96482579D01*
X99399700Y-98394373D01*
X99380015Y-98461412D01*
X99346823Y-98495948D01*
X99153797Y-98631105D01*
X98986705Y-98798197D01*
X98856775Y-98983758D01*
X98802198Y-99027383D01*
X98732700Y-99034577D01*
X98670345Y-99003054D01*
X98653625Y-98983758D01*
X98523694Y-98798197D01*
X98356602Y-98631106D01*
X98356595Y-98631101D01*
X98163034Y-98495567D01*
X98163030Y-98495565D01*
X98104399Y-98468225D01*
X97948863Y-98395697D01*
X97948859Y-98395696D01*
X97948855Y-98395694D01*
X97720613Y-98334538D01*
X97720603Y-98334536D01*
X97485201Y-98313941D01*
X97485199Y-98313941D01*
X97249790Y-98334537D01*
X97249789Y-98334537D01*
X97149324Y-98361455D01*
X97079474Y-98359791D01*
X97029552Y-98329361D01*
X95689138Y-96988947D01*
X95655653Y-96927624D01*
X95660637Y-96857932D01*
X95702509Y-96801999D01*
X95767973Y-96777582D01*
X95815817Y-96783559D01*
X95928803Y-96820999D01*
X96031591Y-96831500D01*
X96656608Y-96831499D01*
X96656616Y-96831498D01*
X96656619Y-96831498D01*
X96712902Y-96825748D01*
X96759397Y-96820999D01*
X96925934Y-96765814D01*
X97075256Y-96673712D01*
X97169275Y-96579692D01*
X97230594Y-96546210D01*
X97300286Y-96551194D01*
X97344634Y-96579695D01*
X97438254Y-96673315D01*
X97587475Y-96765356D01*
X97587480Y-96765358D01*
X97753902Y-96820505D01*
X97753909Y-96820506D01*
X97856619Y-96830999D01*
X97919099Y-96830998D01*
X97919100Y-96830998D01*
X97919100Y-95881000D01*
X98419100Y-95881000D01*
X98419100Y-96830999D01*
X98481572Y-96830999D01*
X98481586Y-96830998D01*
X98584297Y-96820505D01*
X98750719Y-96765358D01*
X98750724Y-96765356D01*
X98899945Y-96673315D01*
X99023915Y-96549345D01*
X99115956Y-96400124D01*
X99115958Y-96400119D01*
X99171105Y-96233697D01*
X99171106Y-96233690D01*
X99181599Y-96130986D01*
X99181600Y-96130973D01*
X99181600Y-95881000D01*
X98419100Y-95881000D01*
X97919100Y-95881000D01*
X97919100Y-94431000D01*
X98419100Y-94431000D01*
X98419100Y-95381000D01*
X99181599Y-95381000D01*
X99181599Y-95131028D01*
X99181598Y-95131013D01*
X99171105Y-95028302D01*
X99115958Y-94861880D01*
X99115956Y-94861875D01*
X99023915Y-94712654D01*
X98899945Y-94588684D01*
X98750724Y-94496643D01*
X98750719Y-94496641D01*
X98584297Y-94441494D01*
X98584290Y-94441493D01*
X98481586Y-94431000D01*
X98419100Y-94431000D01*
X97919100Y-94431000D01*
X97919098Y-94430999D01*
X97916294Y-94430999D01*
X97849255Y-94411314D01*
X97803500Y-94358510D01*
X97793556Y-94289352D01*
X97822581Y-94225796D01*
X97870800Y-94191646D01*
X97972338Y-94151606D01*
X98091012Y-94061612D01*
X98181006Y-93942938D01*
X98235644Y-93804385D01*
X98246100Y-93717318D01*
X98246100Y-93520700D01*
X98265785Y-93453661D01*
X98318589Y-93407906D01*
X98370100Y-93396700D01*
X99033576Y-93396700D01*
X99100615Y-93416385D01*
G37*
%TD.AperFunction*%
%TA.AperFunction,Conductor*%
G36*
X109806105Y-95209385D02*
G01*
X109851860Y-95262189D01*
X109861804Y-95331347D01*
X109832779Y-95394903D01*
X109826747Y-95401381D01*
X107159344Y-98068783D01*
X107159338Y-98068791D01*
X107090890Y-98171227D01*
X107090888Y-98171232D01*
X107078537Y-98201051D01*
X107043738Y-98285063D01*
X107043735Y-98285075D01*
X107019698Y-98405915D01*
X107019678Y-98406128D01*
X107019636Y-98406231D01*
X107018511Y-98411888D01*
X107017438Y-98411674D01*
X106993515Y-98470914D01*
X106967400Y-98495544D01*
X106773794Y-98631108D01*
X106606705Y-98798197D01*
X106476775Y-98983758D01*
X106422198Y-99027383D01*
X106352700Y-99034577D01*
X106290345Y-99003054D01*
X106273625Y-98983758D01*
X106143694Y-98798197D01*
X105976602Y-98631106D01*
X105976595Y-98631101D01*
X105783034Y-98495567D01*
X105783030Y-98495565D01*
X105724399Y-98468225D01*
X105568863Y-98395697D01*
X105568859Y-98395696D01*
X105568855Y-98395694D01*
X105340613Y-98334538D01*
X105340603Y-98334536D01*
X105105201Y-98313941D01*
X105105199Y-98313941D01*
X104869796Y-98334536D01*
X104869786Y-98334538D01*
X104641544Y-98395694D01*
X104641535Y-98395698D01*
X104427371Y-98495564D01*
X104427369Y-98495565D01*
X104233797Y-98631105D01*
X104066705Y-98798197D01*
X103936775Y-98983758D01*
X103882198Y-99027383D01*
X103812700Y-99034577D01*
X103750345Y-99003054D01*
X103733625Y-98983758D01*
X103603694Y-98798197D01*
X103436602Y-98631106D01*
X103436595Y-98631101D01*
X103243034Y-98495567D01*
X103243030Y-98495565D01*
X103184399Y-98468225D01*
X103028863Y-98395697D01*
X103028859Y-98395696D01*
X103028855Y-98395694D01*
X102800613Y-98334538D01*
X102800603Y-98334536D01*
X102565201Y-98313941D01*
X102565199Y-98313941D01*
X102329796Y-98334536D01*
X102329786Y-98334538D01*
X102101544Y-98395694D01*
X102101535Y-98395698D01*
X101887371Y-98495564D01*
X101887369Y-98495565D01*
X101693797Y-98631105D01*
X101526705Y-98798197D01*
X101396775Y-98983758D01*
X101342198Y-99027383D01*
X101272700Y-99034577D01*
X101210345Y-99003054D01*
X101193625Y-98983758D01*
X101063694Y-98798197D01*
X100896602Y-98631106D01*
X100896601Y-98631105D01*
X100727320Y-98512573D01*
X100703576Y-98495947D01*
X100659951Y-98441370D01*
X100650700Y-98394372D01*
X100650700Y-96854641D01*
X100670385Y-96787602D01*
X100687014Y-96766965D01*
X101020771Y-96433208D01*
X101082092Y-96399725D01*
X101151784Y-96404709D01*
X101207717Y-96446581D01*
X101231808Y-96508289D01*
X101234894Y-96538497D01*
X101290041Y-96704919D01*
X101290043Y-96704924D01*
X101382084Y-96854145D01*
X101506054Y-96978115D01*
X101655275Y-97070156D01*
X101655280Y-97070158D01*
X101821702Y-97125305D01*
X101821709Y-97125306D01*
X101924419Y-97135799D01*
X101986899Y-97135798D01*
X101986900Y-97135798D01*
X101986900Y-95809800D01*
X102006585Y-95742761D01*
X102059389Y-95697006D01*
X102110900Y-95685800D01*
X102362900Y-95685800D01*
X102429939Y-95705485D01*
X102475694Y-95758289D01*
X102486900Y-95809800D01*
X102486900Y-97135799D01*
X102549372Y-97135799D01*
X102549386Y-97135798D01*
X102652097Y-97125305D01*
X102818519Y-97070158D01*
X102818524Y-97070156D01*
X102967742Y-96978117D01*
X103061364Y-96884495D01*
X103122687Y-96851010D01*
X103192379Y-96855994D01*
X103236727Y-96884495D01*
X103330744Y-96978512D01*
X103480066Y-97070614D01*
X103646603Y-97125799D01*
X103749391Y-97136300D01*
X104374408Y-97136299D01*
X104374416Y-97136298D01*
X104374419Y-97136298D01*
X104430702Y-97130548D01*
X104477197Y-97125799D01*
X104643734Y-97070614D01*
X104793056Y-96978512D01*
X104917112Y-96854456D01*
X104917115Y-96854450D01*
X104919313Y-96852253D01*
X104980636Y-96818768D01*
X105050328Y-96823752D01*
X105057421Y-96826650D01*
X105104797Y-96847744D01*
X105289954Y-96887100D01*
X105289955Y-96887100D01*
X105479244Y-96887100D01*
X105479246Y-96887100D01*
X105664403Y-96847744D01*
X105837330Y-96770751D01*
X105990471Y-96659488D01*
X106117133Y-96518816D01*
X106211779Y-96354884D01*
X106270274Y-96174856D01*
X106290060Y-95986600D01*
X106270274Y-95798344D01*
X106211779Y-95618316D01*
X106117133Y-95454384D01*
X106065169Y-95396672D01*
X106034939Y-95333680D01*
X106043564Y-95264345D01*
X106088306Y-95210680D01*
X106154958Y-95189722D01*
X106157319Y-95189700D01*
X109739066Y-95189700D01*
X109806105Y-95209385D01*
G37*
%TD.AperFunction*%
%TA.AperFunction,Conductor*%
G36*
X100218731Y-90326193D02*
G01*
X100254381Y-90386284D01*
X100251885Y-90456109D01*
X100249587Y-90462434D01*
X100235556Y-90498013D01*
X100235555Y-90498017D01*
X100225100Y-90585081D01*
X100225100Y-91177318D01*
X100235555Y-91264382D01*
X100235555Y-91264383D01*
X100290195Y-91402940D01*
X100290197Y-91402944D01*
X100319265Y-91441276D01*
X100344088Y-91506587D01*
X100329660Y-91574951D01*
X100319265Y-91591124D01*
X100290197Y-91629455D01*
X100290195Y-91629459D01*
X100235555Y-91768016D01*
X100233609Y-91775720D01*
X100231108Y-91775087D01*
X100208562Y-91827648D01*
X100150675Y-91866774D01*
X100080824Y-91868394D01*
X100025311Y-91836320D01*
X99633419Y-91444428D01*
X99599934Y-91383105D01*
X99597100Y-91356747D01*
X99597100Y-90519725D01*
X99616785Y-90452686D01*
X99633419Y-90432044D01*
X99677644Y-90387819D01*
X99738967Y-90354334D01*
X99765325Y-90351500D01*
X99905389Y-90351500D01*
X99965811Y-90339481D01*
X100026234Y-90327463D01*
X100063700Y-90311944D01*
X100086785Y-90302381D01*
X100156253Y-90294916D01*
X100218731Y-90326193D01*
G37*
%TD.AperFunction*%
%TA.AperFunction,Conductor*%
G36*
X104198386Y-88357870D02*
G01*
X104200524Y-88359106D01*
X104238802Y-88381744D01*
X104265639Y-88389541D01*
X104396626Y-88427597D01*
X104396629Y-88427597D01*
X104396631Y-88427598D01*
X104409427Y-88428605D01*
X104474716Y-88453488D01*
X104516188Y-88509718D01*
X104523700Y-88552223D01*
X104523700Y-88700806D01*
X104531346Y-88739251D01*
X104532139Y-88743235D01*
X104532139Y-88743236D01*
X104532138Y-88743236D01*
X104547734Y-88821644D01*
X104547738Y-88821656D01*
X104552577Y-88833339D01*
X104561335Y-88893744D01*
X104555664Y-88947713D01*
X104555340Y-88950800D01*
X104575126Y-89139056D01*
X104575127Y-89139059D01*
X104633618Y-89319077D01*
X104633621Y-89319084D01*
X104728267Y-89483016D01*
X104813707Y-89577906D01*
X104854929Y-89623688D01*
X105008065Y-89734948D01*
X105008070Y-89734951D01*
X105180992Y-89811942D01*
X105180997Y-89811944D01*
X105366154Y-89851300D01*
X105366155Y-89851300D01*
X105524700Y-89851300D01*
X105591739Y-89870985D01*
X105637494Y-89923789D01*
X105648700Y-89975300D01*
X105648700Y-90167589D01*
X105629015Y-90234628D01*
X105576211Y-90280383D01*
X105507053Y-90290327D01*
X105498932Y-90288882D01*
X105428446Y-90273900D01*
X105239154Y-90273900D01*
X105239153Y-90273900D01*
X105232691Y-90274579D01*
X105232559Y-90273331D01*
X105192168Y-90273593D01*
X105162630Y-90267718D01*
X105102207Y-90255700D01*
X105102206Y-90255700D01*
X103264250Y-90255700D01*
X103197211Y-90236015D01*
X103151456Y-90183211D01*
X103141512Y-90114053D01*
X103148895Y-90086210D01*
X103185154Y-89994263D01*
X103195600Y-89907271D01*
X103195600Y-89861200D01*
X101584600Y-89861200D01*
X101517561Y-89841515D01*
X101471806Y-89788711D01*
X101460600Y-89737200D01*
X101460600Y-89690700D01*
X101480285Y-89623661D01*
X101533089Y-89577906D01*
X101584600Y-89566700D01*
X102289978Y-89566700D01*
X102289978Y-89566699D01*
X102375976Y-89549594D01*
X102375977Y-89549594D01*
X102387697Y-89547262D01*
X102410822Y-89542663D01*
X102458493Y-89522917D01*
X102524656Y-89495512D01*
X102575879Y-89461284D01*
X102627103Y-89427058D01*
X102634529Y-89419632D01*
X102656643Y-89397519D01*
X102717966Y-89364034D01*
X102744324Y-89361200D01*
X103195600Y-89361200D01*
X103195600Y-89315128D01*
X103185154Y-89228136D01*
X103130564Y-89089705D01*
X103130563Y-89089704D01*
X103124257Y-89081388D01*
X103099432Y-89016077D01*
X103113859Y-88947713D01*
X103135369Y-88918790D01*
X103473267Y-88580894D01*
X103534591Y-88547410D01*
X103560948Y-88544576D01*
X103620138Y-88544576D01*
X103620140Y-88544576D01*
X103805297Y-88505220D01*
X103975037Y-88429646D01*
X103978222Y-88428228D01*
X103978222Y-88428227D01*
X103978224Y-88428227D01*
X104064525Y-88365524D01*
X104130332Y-88342045D01*
X104198386Y-88357870D01*
G37*
%TD.AperFunction*%
%TA.AperFunction,Conductor*%
G36*
X111217076Y-81556013D02*
G01*
X111220233Y-81558815D01*
X111220252Y-81558793D01*
X111224962Y-81562658D01*
X111327402Y-81631107D01*
X111327408Y-81631110D01*
X111327409Y-81631111D01*
X111441243Y-81678263D01*
X111489477Y-81687857D01*
X111562086Y-81702299D01*
X111562087Y-81702300D01*
X111562088Y-81702300D01*
X111562089Y-81702300D01*
X111970652Y-81702300D01*
X112037691Y-81721985D01*
X112062800Y-81743326D01*
X112068526Y-81749685D01*
X112068530Y-81749689D01*
X112221665Y-81860948D01*
X112221670Y-81860951D01*
X112394592Y-81937942D01*
X112394597Y-81937944D01*
X112579754Y-81977300D01*
X112579755Y-81977300D01*
X112769044Y-81977300D01*
X112769046Y-81977300D01*
X112954203Y-81937944D01*
X113127130Y-81860951D01*
X113280271Y-81749688D01*
X113348494Y-81673918D01*
X113407978Y-81637271D01*
X113477835Y-81638601D01*
X113488090Y-81642329D01*
X113528856Y-81659214D01*
X113541502Y-81664452D01*
X113541504Y-81664452D01*
X113574843Y-81678263D01*
X113591874Y-81681650D01*
X113623035Y-81687849D01*
X113623055Y-81687852D01*
X113623077Y-81687857D01*
X113695686Y-81702299D01*
X113695687Y-81702300D01*
X113695688Y-81702300D01*
X113695689Y-81702300D01*
X114180452Y-81702300D01*
X114247491Y-81721985D01*
X114272600Y-81743326D01*
X114274061Y-81744948D01*
X114278329Y-81749688D01*
X114313756Y-81775427D01*
X114348314Y-81800535D01*
X114390980Y-81855865D01*
X114396959Y-81925478D01*
X114393360Y-81939171D01*
X114343443Y-82092800D01*
X114343334Y-82093136D01*
X114323548Y-82281392D01*
X114343334Y-82469648D01*
X114343335Y-82469651D01*
X114401826Y-82649669D01*
X114401829Y-82649676D01*
X114496475Y-82813608D01*
X114590007Y-82917485D01*
X114623137Y-82954280D01*
X114776273Y-83065540D01*
X114776278Y-83065543D01*
X114949200Y-83142534D01*
X114949205Y-83142536D01*
X115134362Y-83181892D01*
X115134363Y-83181892D01*
X115323652Y-83181892D01*
X115323654Y-83181892D01*
X115508811Y-83142536D01*
X115681738Y-83065543D01*
X115705111Y-83048560D01*
X115770914Y-83025080D01*
X115838969Y-83040904D01*
X115887665Y-83091008D01*
X115901112Y-83134093D01*
X115904447Y-83161863D01*
X115905103Y-83167324D01*
X115906189Y-83171621D01*
X115906189Y-83232377D01*
X115905103Y-83236673D01*
X115902638Y-83257200D01*
X115894700Y-83323305D01*
X115894700Y-83323310D01*
X115894700Y-83323311D01*
X115894700Y-83880688D01*
X115905102Y-83967318D01*
X115906448Y-83972642D01*
X115906448Y-84028898D01*
X115906540Y-84028910D01*
X115906448Y-84029676D01*
X115906448Y-84033417D01*
X115905592Y-84036802D01*
X115895200Y-84123346D01*
X115895200Y-84194155D01*
X115875515Y-84261194D01*
X115822711Y-84306949D01*
X115753553Y-84316893D01*
X115689997Y-84287868D01*
X115679051Y-84277129D01*
X115667871Y-84264712D01*
X115629709Y-84236986D01*
X115514734Y-84153451D01*
X115514729Y-84153448D01*
X115341807Y-84076457D01*
X115341802Y-84076455D01*
X115173253Y-84040630D01*
X115156646Y-84037100D01*
X114967354Y-84037100D01*
X114950747Y-84040630D01*
X114782197Y-84076455D01*
X114782192Y-84076457D01*
X114609270Y-84153448D01*
X114609265Y-84153451D01*
X114456130Y-84264710D01*
X114456126Y-84264714D01*
X114450400Y-84271074D01*
X114390913Y-84307721D01*
X114358252Y-84312100D01*
X112721208Y-84312100D01*
X112597994Y-84312100D01*
X112568649Y-84317937D01*
X112509043Y-84329793D01*
X112477147Y-84336137D01*
X112477141Y-84336139D01*
X112466870Y-84340394D01*
X112363319Y-84383285D01*
X112363316Y-84383287D01*
X112363315Y-84383288D01*
X112316006Y-84414900D01*
X112260868Y-84451742D01*
X112173743Y-84538867D01*
X112173740Y-84538870D01*
X111396010Y-85316599D01*
X111334687Y-85350084D01*
X111292144Y-85351857D01*
X111175502Y-85336501D01*
X111175497Y-85336500D01*
X111175492Y-85336500D01*
X110744908Y-85336500D01*
X110744900Y-85336500D01*
X110627697Y-85351931D01*
X110607649Y-85360235D01*
X110538179Y-85367701D01*
X110512751Y-85360235D01*
X110492702Y-85351931D01*
X110375499Y-85336500D01*
X110375492Y-85336500D01*
X110149700Y-85336500D01*
X110082661Y-85316815D01*
X110036906Y-85264011D01*
X110025700Y-85212500D01*
X110025699Y-84923311D01*
X110025699Y-84923306D01*
X110015298Y-84836684D01*
X110015295Y-84836676D01*
X110014212Y-84832388D01*
X110014213Y-84771610D01*
X110015297Y-84767320D01*
X110015297Y-84767317D01*
X110015298Y-84767316D01*
X110025700Y-84680695D01*
X110025699Y-84563989D01*
X110045383Y-84496951D01*
X110098187Y-84451196D01*
X110162667Y-84440670D01*
X110166752Y-84441099D01*
X110166754Y-84441100D01*
X110166756Y-84441100D01*
X110356044Y-84441100D01*
X110356046Y-84441100D01*
X110541203Y-84401744D01*
X110714130Y-84324751D01*
X110867271Y-84213488D01*
X110993933Y-84072816D01*
X111088579Y-83908884D01*
X111147074Y-83728856D01*
X111166860Y-83540600D01*
X111147074Y-83352344D01*
X111088579Y-83172316D01*
X110993933Y-83008384D01*
X110867271Y-82867712D01*
X110867270Y-82867711D01*
X110714134Y-82756451D01*
X110714129Y-82756448D01*
X110541207Y-82679457D01*
X110541202Y-82679455D01*
X110395401Y-82648465D01*
X110356046Y-82640100D01*
X110356045Y-82640100D01*
X110296852Y-82640100D01*
X110229813Y-82620415D01*
X110209171Y-82603781D01*
X110052901Y-82447511D01*
X110019416Y-82386188D01*
X110017467Y-82345043D01*
X110025200Y-82280658D01*
X110025200Y-82150337D01*
X110044885Y-82083298D01*
X110097689Y-82037543D01*
X110162173Y-82027018D01*
X110166753Y-82027499D01*
X110166754Y-82027500D01*
X110166755Y-82027500D01*
X110356044Y-82027500D01*
X110356046Y-82027500D01*
X110541203Y-81988144D01*
X110714130Y-81911151D01*
X110867271Y-81799888D01*
X110993933Y-81659216D01*
X111033038Y-81591483D01*
X111083604Y-81543269D01*
X111152211Y-81530045D01*
X111217076Y-81556013D01*
G37*
%TD.AperFunction*%
%TA.AperFunction,Conductor*%
G36*
X118673834Y-82922469D02*
G01*
X118729767Y-82964341D01*
X118754184Y-83029805D01*
X118754500Y-83038651D01*
X118754500Y-84169947D01*
X118734815Y-84236986D01*
X118718181Y-84257628D01*
X118435629Y-84540181D01*
X118374306Y-84573666D01*
X118347948Y-84576500D01*
X118247459Y-84576500D01*
X118180420Y-84556815D01*
X118172533Y-84551303D01*
X118153454Y-84536835D01*
X118105940Y-84500803D01*
X118064417Y-84444610D01*
X118059866Y-84374889D01*
X118093732Y-84313775D01*
X118105940Y-84303197D01*
X118126154Y-84287868D01*
X118211413Y-84223213D01*
X118228203Y-84201073D01*
X118284396Y-84159551D01*
X118327006Y-84152000D01*
X118365200Y-84152000D01*
X118365200Y-84123339D01*
X118354808Y-84036806D01*
X118353952Y-84033419D01*
X118353952Y-84029676D01*
X118353860Y-84028910D01*
X118353952Y-84028898D01*
X118353952Y-83972638D01*
X118355294Y-83967324D01*
X118355298Y-83967316D01*
X118365700Y-83880695D01*
X118365699Y-83323306D01*
X118355298Y-83236684D01*
X118355296Y-83236680D01*
X118354213Y-83232394D01*
X118354213Y-83171605D01*
X118355296Y-83167320D01*
X118355298Y-83167316D01*
X118355298Y-83167311D01*
X118356676Y-83161863D01*
X118389209Y-83104579D01*
X118542822Y-82950967D01*
X118604142Y-82917485D01*
X118673834Y-82922469D01*
G37*
%TD.AperFunction*%
%TA.AperFunction,Conductor*%
G36*
X106730839Y-72947085D02*
G01*
X106776594Y-72999889D01*
X106787800Y-73051400D01*
X106787800Y-74402399D01*
X106837772Y-74402399D01*
X106837786Y-74402398D01*
X106940497Y-74391905D01*
X107106919Y-74336758D01*
X107106924Y-74336756D01*
X107256145Y-74244715D01*
X107380115Y-74120745D01*
X107472156Y-73971524D01*
X107472159Y-73971517D01*
X107527230Y-73805323D01*
X107567002Y-73747877D01*
X107631518Y-73721054D01*
X107700294Y-73733369D01*
X107751494Y-73780911D01*
X107762642Y-73805321D01*
X107817716Y-73971524D01*
X107817786Y-73971733D01*
X107817787Y-73971736D01*
X107852669Y-74028288D01*
X107909888Y-74121056D01*
X108033944Y-74245112D01*
X108033952Y-74245117D01*
X108039407Y-74249430D01*
X108079786Y-74306451D01*
X108086500Y-74346700D01*
X108086500Y-74458206D01*
X108110537Y-74579052D01*
X108111786Y-74582067D01*
X108157688Y-74692886D01*
X108182520Y-74730049D01*
X108191914Y-74744107D01*
X108191915Y-74744109D01*
X108226141Y-74795333D01*
X108313264Y-74882456D01*
X108313267Y-74882458D01*
X108354952Y-74910311D01*
X108415714Y-74950912D01*
X108433753Y-74958384D01*
X108487863Y-74980797D01*
X108487868Y-74980798D01*
X108487872Y-74980800D01*
X108529548Y-74998063D01*
X108589971Y-75010081D01*
X108650393Y-75022100D01*
X108650394Y-75022100D01*
X110916148Y-75022100D01*
X110983187Y-75041785D01*
X111003829Y-75058419D01*
X111386663Y-75441255D01*
X111386667Y-75441258D01*
X111489110Y-75509709D01*
X111489111Y-75509709D01*
X111489115Y-75509712D01*
X111550437Y-75535112D01*
X111602948Y-75556863D01*
X111615748Y-75559409D01*
X111660184Y-75568248D01*
X111723792Y-75580901D01*
X111723794Y-75580901D01*
X111853121Y-75580901D01*
X111853141Y-75580900D01*
X113268582Y-75580900D01*
X113335621Y-75600585D01*
X113360732Y-75621928D01*
X113389329Y-75653688D01*
X113389333Y-75653692D01*
X113478632Y-75718570D01*
X113521299Y-75773900D01*
X113527278Y-75843513D01*
X113494673Y-75905308D01*
X113433835Y-75939666D01*
X113379970Y-75940180D01*
X113368633Y-75937770D01*
X113353246Y-75934500D01*
X113163954Y-75934500D01*
X113131497Y-75941398D01*
X112978797Y-75973855D01*
X112978792Y-75973857D01*
X112805870Y-76050848D01*
X112805865Y-76050851D01*
X112652729Y-76162111D01*
X112526066Y-76302785D01*
X112431421Y-76466715D01*
X112431418Y-76466722D01*
X112372927Y-76646740D01*
X112372926Y-76646744D01*
X112362280Y-76748037D01*
X112353140Y-76835001D01*
X112357143Y-76873095D01*
X112344572Y-76941825D01*
X112296839Y-76992847D01*
X112250012Y-77008993D01*
X112227696Y-77011931D01*
X112207649Y-77020235D01*
X112138179Y-77027701D01*
X112112751Y-77020235D01*
X112092702Y-77011931D01*
X111975499Y-76996500D01*
X111975492Y-76996500D01*
X111544908Y-76996500D01*
X111544900Y-76996500D01*
X111427697Y-77011931D01*
X111407649Y-77020235D01*
X111338179Y-77027701D01*
X111312751Y-77020235D01*
X111292702Y-77011931D01*
X111175499Y-76996500D01*
X111175492Y-76996500D01*
X110744908Y-76996500D01*
X110744900Y-76996500D01*
X110627697Y-77011931D01*
X110607649Y-77020235D01*
X110538179Y-77027701D01*
X110512751Y-77020235D01*
X110492702Y-77011931D01*
X110375499Y-76996500D01*
X110375492Y-76996500D01*
X109944908Y-76996500D01*
X109944900Y-76996500D01*
X109827699Y-77011931D01*
X109827695Y-77011932D01*
X109681865Y-77072336D01*
X109556632Y-77168432D01*
X109460536Y-77293665D01*
X109400132Y-77439495D01*
X109400131Y-77439499D01*
X109384700Y-77556700D01*
X109384700Y-77702500D01*
X109365015Y-77769539D01*
X109312211Y-77815294D01*
X109260700Y-77826500D01*
X109176154Y-77826500D01*
X109143697Y-77833398D01*
X108990997Y-77865855D01*
X108990992Y-77865857D01*
X108818070Y-77942848D01*
X108818065Y-77942851D01*
X108664929Y-78054111D01*
X108538266Y-78194785D01*
X108443621Y-78358715D01*
X108443618Y-78358722D01*
X108385506Y-78537574D01*
X108385126Y-78538744D01*
X108381359Y-78574590D01*
X108366552Y-78715462D01*
X108339967Y-78780077D01*
X108282669Y-78820061D01*
X108243232Y-78826500D01*
X108051511Y-78826500D01*
X107964884Y-78836902D01*
X107856428Y-78879671D01*
X107786842Y-78885952D01*
X107724906Y-78853615D01*
X107690285Y-78792926D01*
X107693007Y-78726001D01*
X107718074Y-78648856D01*
X107737860Y-78460600D01*
X107718074Y-78272344D01*
X107659579Y-78092316D01*
X107564933Y-77928384D01*
X107438271Y-77787712D01*
X107438270Y-77787711D01*
X107285134Y-77676451D01*
X107285129Y-77676448D01*
X107112207Y-77599457D01*
X107112202Y-77599455D01*
X106966401Y-77568465D01*
X106927046Y-77560100D01*
X106737754Y-77560100D01*
X106705297Y-77566998D01*
X106552597Y-77599455D01*
X106552592Y-77599457D01*
X106379670Y-77676448D01*
X106379665Y-77676451D01*
X106226529Y-77787711D01*
X106099867Y-77928383D01*
X106091514Y-77942851D01*
X106050667Y-78013600D01*
X106000102Y-78061815D01*
X105943281Y-78075600D01*
X103350705Y-78075600D01*
X103350704Y-78075601D01*
X103350899Y-78078086D01*
X103396718Y-78235798D01*
X103480314Y-78377152D01*
X103485100Y-78383322D01*
X103482640Y-78385229D01*
X103509210Y-78433888D01*
X103504226Y-78503580D01*
X103483162Y-78536381D01*
X103484699Y-78537574D01*
X103479915Y-78543740D01*
X103396255Y-78685203D01*
X103396254Y-78685206D01*
X103350402Y-78843026D01*
X103350401Y-78843032D01*
X103347500Y-78879898D01*
X103347500Y-79311301D01*
X103350401Y-79348167D01*
X103350402Y-79348173D01*
X103396254Y-79505993D01*
X103396255Y-79505996D01*
X103396256Y-79505998D01*
X103401563Y-79514971D01*
X103479917Y-79647462D01*
X103484702Y-79653631D01*
X103482369Y-79655440D01*
X103509210Y-79704595D01*
X103504226Y-79774287D01*
X103483470Y-79806621D01*
X103485097Y-79807883D01*
X103480313Y-79814049D01*
X103396718Y-79955401D01*
X103350899Y-80113113D01*
X103350704Y-80115598D01*
X103350705Y-80115600D01*
X104774000Y-80115600D01*
X104841039Y-80135285D01*
X104886794Y-80188089D01*
X104898000Y-80239600D01*
X104898000Y-80291100D01*
X104878315Y-80358139D01*
X104825511Y-80403894D01*
X104774000Y-80415100D01*
X97322000Y-80415100D01*
X97254961Y-80395415D01*
X97209206Y-80342611D01*
X97198000Y-80291100D01*
X97198000Y-80239600D01*
X97217685Y-80172561D01*
X97270489Y-80126806D01*
X97322000Y-80115600D01*
X98745295Y-80115600D01*
X98745295Y-80115598D01*
X98745100Y-80113113D01*
X98699281Y-79955401D01*
X98671379Y-79908221D01*
X98654196Y-79840497D01*
X98676356Y-79774235D01*
X98730822Y-79730471D01*
X98778111Y-79721100D01*
X100908913Y-79721100D01*
X100908913Y-79721099D01*
X100988848Y-79705200D01*
X100988849Y-79705200D01*
X101002608Y-79702462D01*
X101029757Y-79697063D01*
X101087075Y-79673321D01*
X101143591Y-79649912D01*
X101199803Y-79612351D01*
X101246038Y-79581458D01*
X101333163Y-79494333D01*
X101333163Y-79494331D01*
X101343371Y-79484124D01*
X101343372Y-79484121D01*
X102150458Y-78677038D01*
X102218912Y-78574590D01*
X102224442Y-78561240D01*
X102256333Y-78484248D01*
X102256333Y-78484247D01*
X102257321Y-78481862D01*
X102266063Y-78460757D01*
X102273439Y-78423676D01*
X102278348Y-78398997D01*
X102278348Y-78398994D01*
X102290101Y-78339911D01*
X102290101Y-78216698D01*
X102290101Y-78211588D01*
X102290100Y-78211562D01*
X102290100Y-77305100D01*
X102309785Y-77238061D01*
X102362589Y-77192306D01*
X102414100Y-77181100D01*
X103317889Y-77181100D01*
X103384928Y-77200785D01*
X103430683Y-77253589D01*
X103440627Y-77322747D01*
X103424621Y-77368221D01*
X103396718Y-77415401D01*
X103350899Y-77573113D01*
X103350704Y-77575598D01*
X103350705Y-77575600D01*
X105945295Y-77575600D01*
X105945295Y-77575598D01*
X105945100Y-77573113D01*
X105899281Y-77415401D01*
X105815685Y-77274047D01*
X105810900Y-77267878D01*
X105813366Y-77265964D01*
X105786802Y-77217376D01*
X105791749Y-77147682D01*
X105812856Y-77114832D01*
X105811301Y-77113626D01*
X105816077Y-77107468D01*
X105816081Y-77107465D01*
X105899744Y-76965998D01*
X105942065Y-76820329D01*
X105945597Y-76808173D01*
X105945598Y-76808167D01*
X105948500Y-76771292D01*
X105948500Y-76339913D01*
X105948499Y-76339898D01*
X105946486Y-76314322D01*
X105945598Y-76303031D01*
X105945526Y-76302784D01*
X105904657Y-76162112D01*
X105899744Y-76145202D01*
X105816081Y-76003735D01*
X105816079Y-76003733D01*
X105816076Y-76003729D01*
X105699870Y-75887523D01*
X105699862Y-75887517D01*
X105587683Y-75821175D01*
X105558398Y-75803856D01*
X105558397Y-75803855D01*
X105558396Y-75803855D01*
X105558393Y-75803854D01*
X105400573Y-75758002D01*
X105400567Y-75758001D01*
X105377571Y-75756192D01*
X105312283Y-75731308D01*
X105270812Y-75675077D01*
X105263300Y-75632574D01*
X105263300Y-74371777D01*
X105282985Y-74304738D01*
X105322206Y-74266237D01*
X105356454Y-74245113D01*
X105356453Y-74245113D01*
X105356456Y-74245112D01*
X105480512Y-74121056D01*
X105482552Y-74117747D01*
X105484545Y-74115955D01*
X105484993Y-74115389D01*
X105485089Y-74115465D01*
X105534494Y-74071023D01*
X105603456Y-74059795D01*
X105667540Y-74087634D01*
X105693629Y-74117739D01*
X105695481Y-74120741D01*
X105695483Y-74120744D01*
X105819454Y-74244715D01*
X105968675Y-74336756D01*
X105968680Y-74336758D01*
X106135102Y-74391905D01*
X106135109Y-74391906D01*
X106237819Y-74402399D01*
X106287799Y-74402398D01*
X106287800Y-74402398D01*
X106287800Y-73051400D01*
X106307485Y-72984361D01*
X106360289Y-72938606D01*
X106411800Y-72927400D01*
X106663800Y-72927400D01*
X106730839Y-72947085D01*
G37*
%TD.AperFunction*%
%TA.AperFunction,Conductor*%
G36*
X135813200Y-71678770D02*
G01*
X135880226Y-71698493D01*
X135900808Y-71715089D01*
X138596800Y-74411081D01*
X138630285Y-74472404D01*
X138633119Y-74498762D01*
X138633119Y-79805864D01*
X138613434Y-79872903D01*
X138560630Y-79918658D01*
X138491472Y-79928602D01*
X138427916Y-79899577D01*
X138421438Y-79893545D01*
X138375037Y-79847144D01*
X138375006Y-79847115D01*
X137849515Y-79321624D01*
X137816030Y-79260301D01*
X137821014Y-79190609D01*
X137839711Y-79158528D01*
X137839404Y-79158313D01*
X137841985Y-79154625D01*
X137842227Y-79154212D01*
X137842519Y-79153863D01*
X137978000Y-78960378D01*
X138077829Y-78746292D01*
X138077832Y-78746286D01*
X138135036Y-78532800D01*
X137237412Y-78532800D01*
X137270325Y-78475793D01*
X137304400Y-78348626D01*
X137304400Y-78216974D01*
X137270325Y-78089807D01*
X137237412Y-78032800D01*
X138135036Y-78032800D01*
X138135035Y-78032799D01*
X138077832Y-77819313D01*
X138077829Y-77819307D01*
X137978000Y-77605222D01*
X137977999Y-77605220D01*
X137842513Y-77411726D01*
X137842508Y-77411720D01*
X137675482Y-77244694D01*
X137481978Y-77109199D01*
X137267892Y-77009370D01*
X137267886Y-77009367D01*
X137054400Y-76952164D01*
X137054400Y-77849788D01*
X136997393Y-77816875D01*
X136870226Y-77782800D01*
X136738574Y-77782800D01*
X136611407Y-77816875D01*
X136554400Y-77849788D01*
X136554400Y-76952164D01*
X136554399Y-76952164D01*
X136340913Y-77009367D01*
X136340907Y-77009370D01*
X136126822Y-77109199D01*
X136126820Y-77109200D01*
X135933326Y-77244686D01*
X135811265Y-77366747D01*
X135749942Y-77400231D01*
X135680250Y-77395247D01*
X135624317Y-77353375D01*
X135607402Y-77322398D01*
X135606900Y-77321053D01*
X135567621Y-77215739D01*
X135558197Y-77190471D01*
X135558193Y-77190464D01*
X135471947Y-77075255D01*
X135471944Y-77075252D01*
X135356735Y-76989006D01*
X135356728Y-76989002D01*
X135221882Y-76938708D01*
X135221883Y-76938708D01*
X135162283Y-76932301D01*
X135162281Y-76932300D01*
X135162273Y-76932300D01*
X135162264Y-76932300D01*
X133366529Y-76932300D01*
X133366523Y-76932301D01*
X133306916Y-76938708D01*
X133172071Y-76989002D01*
X133172064Y-76989006D01*
X133056855Y-77075252D01*
X133056852Y-77075255D01*
X132970606Y-77190464D01*
X132970602Y-77190471D01*
X132920308Y-77325317D01*
X132913901Y-77384916D01*
X132913900Y-77384935D01*
X132913900Y-78288347D01*
X132894215Y-78355386D01*
X132841411Y-78401141D01*
X132772253Y-78411085D01*
X132708697Y-78382060D01*
X132702219Y-78376028D01*
X129211219Y-74885028D01*
X129177734Y-74823705D01*
X129174900Y-74797347D01*
X129174900Y-72861793D01*
X129174899Y-72861789D01*
X129170684Y-72840597D01*
X129150863Y-72740948D01*
X129123544Y-72674994D01*
X129103712Y-72627114D01*
X129069484Y-72575890D01*
X129035258Y-72524667D01*
X129035256Y-72524664D01*
X128945037Y-72434445D01*
X128945006Y-72434416D01*
X128852798Y-72342208D01*
X128852778Y-72342186D01*
X128761333Y-72250741D01*
X128710109Y-72216515D01*
X128658887Y-72182289D01*
X128658886Y-72182288D01*
X128658883Y-72182286D01*
X128658880Y-72182285D01*
X128578392Y-72148947D01*
X128545053Y-72135137D01*
X128535027Y-72133143D01*
X128484629Y-72123118D01*
X128424210Y-72111100D01*
X128424207Y-72111100D01*
X128424206Y-72111100D01*
X126435607Y-72111100D01*
X126312393Y-72111100D01*
X126312389Y-72111100D01*
X126251971Y-72123118D01*
X126191548Y-72135137D01*
X126191543Y-72135138D01*
X126158207Y-72148947D01*
X126144397Y-72154667D01*
X126130344Y-72160488D01*
X126077713Y-72182288D01*
X126067557Y-72189075D01*
X126067449Y-72189147D01*
X125975268Y-72250740D01*
X125942224Y-72283785D01*
X125888142Y-72337867D01*
X125701228Y-72524781D01*
X125639905Y-72558266D01*
X125613547Y-72561100D01*
X125055644Y-72561100D01*
X124953723Y-72571513D01*
X124788577Y-72626237D01*
X124788566Y-72626242D01*
X124640500Y-72717571D01*
X124640496Y-72717574D01*
X124517474Y-72840596D01*
X124517471Y-72840600D01*
X124426142Y-72988666D01*
X124426137Y-72988677D01*
X124371413Y-73153823D01*
X124361000Y-73255744D01*
X124361000Y-74267455D01*
X124371413Y-74369376D01*
X124378879Y-74391906D01*
X124414287Y-74498762D01*
X124428410Y-74541380D01*
X124426079Y-74542152D01*
X124434825Y-74599727D01*
X124406308Y-74663512D01*
X124362387Y-74696337D01*
X124286670Y-74730048D01*
X124286665Y-74730051D01*
X124133529Y-74841311D01*
X124006866Y-74981985D01*
X123912221Y-75145915D01*
X123912218Y-75145922D01*
X123853726Y-75325942D01*
X123853725Y-75325946D01*
X123850276Y-75358760D01*
X123823691Y-75423374D01*
X123766392Y-75463358D01*
X123696573Y-75466016D01*
X123676520Y-75459075D01*
X123520607Y-75389657D01*
X123520602Y-75389655D01*
X123374801Y-75358665D01*
X123335446Y-75350300D01*
X123146154Y-75350300D01*
X123113697Y-75357198D01*
X122960997Y-75389655D01*
X122960992Y-75389657D01*
X122788070Y-75466648D01*
X122788065Y-75466651D01*
X122634929Y-75577911D01*
X122508266Y-75718585D01*
X122413621Y-75882515D01*
X122413618Y-75882522D01*
X122372292Y-76009712D01*
X122355126Y-76062544D01*
X122339136Y-76214684D01*
X122337479Y-76230450D01*
X122310894Y-76295064D01*
X122301839Y-76305169D01*
X122101269Y-76505740D01*
X122014144Y-76592864D01*
X122014138Y-76592872D01*
X121945690Y-76695308D01*
X121945688Y-76695313D01*
X121914217Y-76771292D01*
X121898538Y-76809143D01*
X121898535Y-76809152D01*
X121896312Y-76820327D01*
X121896313Y-76820328D01*
X121896313Y-76820329D01*
X121879132Y-76906712D01*
X121878361Y-76910586D01*
X121878360Y-76910592D01*
X121874500Y-76929994D01*
X121874500Y-77283511D01*
X121854815Y-77350550D01*
X121815598Y-77389049D01*
X121768844Y-77417887D01*
X121768843Y-77417888D01*
X121675181Y-77511551D01*
X121613858Y-77545036D01*
X121544166Y-77540052D01*
X121499819Y-77511551D01*
X121406155Y-77417887D01*
X121359402Y-77389049D01*
X121312678Y-77337100D01*
X121300500Y-77283511D01*
X121300500Y-76256852D01*
X121320185Y-76189813D01*
X121336819Y-76169171D01*
X122609171Y-74896819D01*
X122670494Y-74863334D01*
X122696852Y-74860500D01*
X122767543Y-74860500D01*
X122767548Y-74860500D01*
X122869475Y-74850087D01*
X123034625Y-74795362D01*
X123182703Y-74704026D01*
X123305726Y-74581003D01*
X123397062Y-74432925D01*
X123451787Y-74267775D01*
X123462200Y-74165848D01*
X123462200Y-73154152D01*
X123451787Y-73052225D01*
X123397062Y-72887075D01*
X123397058Y-72887069D01*
X123397057Y-72887066D01*
X123305728Y-72739000D01*
X123305725Y-72738996D01*
X123182703Y-72615974D01*
X123182699Y-72615971D01*
X123034633Y-72524642D01*
X123034627Y-72524639D01*
X123034625Y-72524638D01*
X123034622Y-72524637D01*
X122869476Y-72469913D01*
X122767555Y-72459500D01*
X122767548Y-72459500D01*
X122180852Y-72459500D01*
X122180844Y-72459500D01*
X122078923Y-72469913D01*
X121913777Y-72524637D01*
X121913766Y-72524642D01*
X121765700Y-72615971D01*
X121765696Y-72615974D01*
X121642674Y-72738996D01*
X121642667Y-72739005D01*
X121641934Y-72740194D01*
X121641219Y-72740836D01*
X121638193Y-72744664D01*
X121637538Y-72744146D01*
X121589980Y-72786911D01*
X121521016Y-72798123D01*
X121456938Y-72770271D01*
X121434938Y-72744877D01*
X121434812Y-72744977D01*
X121432585Y-72742161D01*
X121430863Y-72740173D01*
X121430330Y-72739309D01*
X121307391Y-72616370D01*
X121159414Y-72525096D01*
X121159409Y-72525094D01*
X120994373Y-72470407D01*
X120892515Y-72460000D01*
X120849200Y-72460000D01*
X120849200Y-74836247D01*
X120829515Y-74903286D01*
X120812881Y-74923928D01*
X120276270Y-75460539D01*
X120276267Y-75460542D01*
X120253075Y-75483734D01*
X120189142Y-75547666D01*
X120166166Y-75582053D01*
X120166165Y-75582054D01*
X120120690Y-75650108D01*
X120120686Y-75650116D01*
X120091719Y-75720052D01*
X120091719Y-75720053D01*
X120073537Y-75763947D01*
X120073535Y-75763952D01*
X120069772Y-75782869D01*
X120069773Y-75782870D01*
X120050000Y-75882282D01*
X120049998Y-75882289D01*
X120049500Y-75884787D01*
X120049500Y-76091946D01*
X120029815Y-76158985D01*
X119977011Y-76204740D01*
X119907853Y-76214684D01*
X119844297Y-76185659D01*
X119837819Y-76179627D01*
X119775637Y-76117445D01*
X119775606Y-76117416D01*
X118835019Y-75176829D01*
X118801534Y-75115506D01*
X118798700Y-75089148D01*
X118798700Y-74250452D01*
X118818385Y-74183413D01*
X118835019Y-74162771D01*
X119327771Y-73670019D01*
X119389094Y-73636534D01*
X119415452Y-73633700D01*
X119474634Y-73633700D01*
X119474646Y-73633700D01*
X119474657Y-73633697D01*
X119474719Y-73633691D01*
X119474768Y-73633700D01*
X119481145Y-73633700D01*
X119481145Y-73634865D01*
X119543451Y-73646250D01*
X119594482Y-73693974D01*
X119611700Y-73757010D01*
X119611700Y-74165815D01*
X119622107Y-74267673D01*
X119676794Y-74432709D01*
X119676796Y-74432714D01*
X119768070Y-74580691D01*
X119891008Y-74703629D01*
X120038985Y-74794903D01*
X120038990Y-74794905D01*
X120204026Y-74849592D01*
X120305884Y-74859999D01*
X120305897Y-74860000D01*
X120349200Y-74860000D01*
X120349200Y-72460000D01*
X120328165Y-72460000D01*
X120261126Y-72440315D01*
X120215371Y-72387511D01*
X120210234Y-72374319D01*
X120207179Y-72364916D01*
X120191564Y-72337870D01*
X120112534Y-72200985D01*
X119985870Y-72060311D01*
X119832734Y-71949051D01*
X119832729Y-71949048D01*
X119738129Y-71906929D01*
X119684892Y-71861679D01*
X119664571Y-71794829D01*
X119683617Y-71727606D01*
X119735983Y-71681351D01*
X119788634Y-71669650D01*
X135813200Y-71678770D01*
G37*
%TD.AperFunction*%
%TA.AperFunction,Conductor*%
G36*
X118972551Y-71669185D02*
G01*
X119039576Y-71688908D01*
X119085301Y-71741738D01*
X119095205Y-71810902D01*
X119066144Y-71874441D01*
X119022914Y-71906464D01*
X118927267Y-71949050D01*
X118927265Y-71949051D01*
X118774129Y-72060311D01*
X118647466Y-72200985D01*
X118552821Y-72364915D01*
X118552818Y-72364922D01*
X118500775Y-72525096D01*
X118494326Y-72544944D01*
X118490325Y-72583015D01*
X118476678Y-72712851D01*
X118450093Y-72777466D01*
X118441039Y-72787570D01*
X118318479Y-72910129D01*
X118257159Y-72943613D01*
X118187467Y-72938629D01*
X118143119Y-72910128D01*
X118062458Y-72829467D01*
X117975333Y-72742342D01*
X117975332Y-72742341D01*
X117975330Y-72742339D01*
X117975328Y-72742338D01*
X117916742Y-72703192D01*
X117916740Y-72703191D01*
X117894660Y-72688438D01*
X117872885Y-72673887D01*
X117820989Y-72652392D01*
X117792392Y-72640547D01*
X117759053Y-72626737D01*
X117749027Y-72624743D01*
X117698629Y-72614718D01*
X117638210Y-72602700D01*
X117638207Y-72602700D01*
X117638206Y-72602700D01*
X115746101Y-72602700D01*
X115679062Y-72583015D01*
X115633307Y-72530211D01*
X115628395Y-72517704D01*
X115615800Y-72479694D01*
X115600614Y-72433866D01*
X115508512Y-72284544D01*
X115384456Y-72160488D01*
X115235134Y-72068386D01*
X115068597Y-72013201D01*
X115068595Y-72013200D01*
X114965810Y-72002700D01*
X114365798Y-72002700D01*
X114365780Y-72002701D01*
X114263003Y-72013200D01*
X114263000Y-72013201D01*
X114096468Y-72068385D01*
X114096463Y-72068387D01*
X113947142Y-72160489D01*
X113823085Y-72284546D01*
X113821337Y-72287382D01*
X113819629Y-72288917D01*
X113818607Y-72290211D01*
X113818385Y-72290036D01*
X113769389Y-72334105D01*
X113700426Y-72345326D01*
X113636344Y-72317482D01*
X113610263Y-72287382D01*
X113608514Y-72284546D01*
X113484457Y-72160489D01*
X113484456Y-72160488D01*
X113335134Y-72068386D01*
X113168597Y-72013201D01*
X113168595Y-72013200D01*
X113065810Y-72002700D01*
X112465798Y-72002700D01*
X112465780Y-72002701D01*
X112363003Y-72013200D01*
X112363000Y-72013201D01*
X112196468Y-72068385D01*
X112196463Y-72068387D01*
X112047142Y-72160489D01*
X111923089Y-72284542D01*
X111830981Y-72433874D01*
X111830038Y-72435897D01*
X111829022Y-72437050D01*
X111827195Y-72440013D01*
X111826688Y-72439700D01*
X111783864Y-72488335D01*
X111716670Y-72507485D01*
X111649790Y-72487267D01*
X111604457Y-72434100D01*
X111599952Y-72422493D01*
X111586958Y-72383280D01*
X111586956Y-72383275D01*
X111494915Y-72234054D01*
X111370945Y-72110084D01*
X111221724Y-72018043D01*
X111221719Y-72018041D01*
X111055297Y-71962894D01*
X111055290Y-71962893D01*
X110952586Y-71952400D01*
X110902600Y-71952400D01*
X110902600Y-73303400D01*
X110882915Y-73370439D01*
X110830111Y-73416194D01*
X110778600Y-73427400D01*
X110526600Y-73427400D01*
X110459561Y-73407715D01*
X110413806Y-73354911D01*
X110402600Y-73303400D01*
X110402600Y-71952400D01*
X110402599Y-71952399D01*
X110352629Y-71952400D01*
X110352611Y-71952401D01*
X110249902Y-71962894D01*
X110083480Y-72018041D01*
X110083475Y-72018043D01*
X109934254Y-72110084D01*
X109810283Y-72234055D01*
X109810279Y-72234060D01*
X109808426Y-72237065D01*
X109806618Y-72238690D01*
X109805802Y-72239723D01*
X109805625Y-72239583D01*
X109756474Y-72283785D01*
X109687511Y-72295001D01*
X109623431Y-72267152D01*
X109597353Y-72237053D01*
X109597337Y-72237028D01*
X109595312Y-72233744D01*
X109471256Y-72109688D01*
X109321934Y-72017586D01*
X109270094Y-72000407D01*
X109212650Y-71960634D01*
X109185828Y-71896118D01*
X109185100Y-71882702D01*
X109185100Y-71820394D01*
X109183406Y-71811878D01*
X109189630Y-71742288D01*
X109232490Y-71687109D01*
X109298379Y-71663861D01*
X109305068Y-71663683D01*
X118972551Y-71669185D01*
G37*
%TD.AperFunction*%
%TD*%
M02*
