%TF.GenerationSoftware,KiCad,Pcbnew,7.99.0-4047-gfc85112a72*%
%TF.CreationDate,2024-01-03T16:22:38+03:00*%
%TF.ProjectId,Prj 3 MCU DataLogger,50726a20-3320-44d4-9355-20446174614c,Version-1*%
%TF.SameCoordinates,Original*%
%TF.FileFunction,Paste,Top*%
%TF.FilePolarity,Positive*%
%FSLAX46Y46*%
G04 Gerber Fmt 4.6, Leading zero omitted, Abs format (unit mm)*
G04 Created by KiCad (PCBNEW 7.99.0-4047-gfc85112a72) date 2024-01-03 16:22:38*
%MOMM*%
%LPD*%
G01*
G04 APERTURE LIST*
G04 Aperture macros list*
%AMRoundRect*
0 Rectangle with rounded corners*
0 $1 Rounding radius*
0 $2 $3 $4 $5 $6 $7 $8 $9 X,Y pos of 4 corners*
0 Add a 4 corners polygon primitive as box body*
4,1,4,$2,$3,$4,$5,$6,$7,$8,$9,$2,$3,0*
0 Add four circle primitives for the rounded corners*
1,1,$1+$1,$2,$3*
1,1,$1+$1,$4,$5*
1,1,$1+$1,$6,$7*
1,1,$1+$1,$8,$9*
0 Add four rect primitives between the rounded corners*
20,1,$1+$1,$2,$3,$4,$5,0*
20,1,$1+$1,$4,$5,$6,$7,0*
20,1,$1+$1,$6,$7,$8,$9,0*
20,1,$1+$1,$8,$9,$2,$3,0*%
G04 Aperture macros list end*
%ADD10RoundRect,0.243750X0.243750X0.456250X-0.243750X0.456250X-0.243750X-0.456250X0.243750X-0.456250X0*%
%ADD11RoundRect,0.250000X-0.262500X-0.450000X0.262500X-0.450000X0.262500X0.450000X-0.262500X0.450000X0*%
%ADD12RoundRect,0.250000X0.250000X0.475000X-0.250000X0.475000X-0.250000X-0.475000X0.250000X-0.475000X0*%
%ADD13RoundRect,0.038500X-0.696500X-0.236500X0.696500X-0.236500X0.696500X0.236500X-0.696500X0.236500X0*%
%ADD14RoundRect,0.099000X-0.176000X-0.636000X0.176000X-0.636000X0.176000X0.636000X-0.176000X0.636000X0*%
%ADD15R,3.500000X2.400000*%
%ADD16RoundRect,0.250000X-0.250000X-0.475000X0.250000X-0.475000X0.250000X0.475000X-0.250000X0.475000X0*%
%ADD17R,2.400000X3.500000*%
%ADD18RoundRect,0.150000X-0.650000X-0.150000X0.650000X-0.150000X0.650000X0.150000X-0.650000X0.150000X0*%
%ADD19RoundRect,0.250000X0.262500X0.450000X-0.262500X0.450000X-0.262500X-0.450000X0.262500X-0.450000X0*%
%ADD20RoundRect,0.041300X-0.943700X-0.253700X0.943700X-0.253700X0.943700X0.253700X-0.943700X0.253700X0*%
%ADD21RoundRect,0.150000X0.650000X0.150000X-0.650000X0.150000X-0.650000X-0.150000X0.650000X-0.150000X0*%
G04 APERTURE END LIST*
D10*
%TO.C,D2*%
X122474200Y-73660000D03*
X120599200Y-73660000D03*
%TD*%
D11*
%TO.C,R6*%
X120675000Y-78460600D03*
X122500000Y-78460600D03*
%TD*%
D12*
%TO.C,C2*%
X122362000Y-92456000D03*
X120462000Y-92456000D03*
%TD*%
%TO.C,C1*%
X106537800Y-73177400D03*
X104637800Y-73177400D03*
%TD*%
D11*
%TO.C,R7*%
X125374000Y-78308200D03*
X127199000Y-78308200D03*
%TD*%
D10*
%TO.C,D1*%
X127224000Y-73761600D03*
X125349000Y-73761600D03*
%TD*%
D13*
%TO.C,U4*%
X108790200Y-79602000D03*
X108790200Y-80402000D03*
X108790200Y-81202000D03*
X108790200Y-82002000D03*
X108790200Y-82802000D03*
X108790200Y-83602000D03*
X108790200Y-84402000D03*
X108790200Y-85202000D03*
D14*
X110160200Y-86572000D03*
X110960200Y-86572000D03*
X111760200Y-86572000D03*
X112560200Y-86572000D03*
X113360200Y-86572000D03*
X114160200Y-86572000D03*
X114960200Y-86572000D03*
X115760200Y-86572000D03*
D13*
X117130200Y-85202000D03*
X117130200Y-84402000D03*
X117130200Y-83602000D03*
X117130200Y-82802000D03*
X117130200Y-82002000D03*
X117130200Y-81202000D03*
X117130200Y-80402000D03*
X117130200Y-79602000D03*
D14*
X115760200Y-78232000D03*
X114960200Y-78232000D03*
X114160200Y-78232000D03*
X113360200Y-78232000D03*
X112560200Y-78232000D03*
X111760200Y-78232000D03*
X110960200Y-78232000D03*
X110160200Y-78232000D03*
%TD*%
D15*
%TO.C,Y1*%
X114182200Y-90830400D03*
X108982200Y-90830400D03*
%TD*%
D16*
%TO.C,C4*%
X112765800Y-73228200D03*
X114665800Y-73228200D03*
%TD*%
D11*
%TO.C,R4*%
X125270500Y-87122000D03*
X127095500Y-87122000D03*
%TD*%
%TO.C,R2*%
X102236900Y-95935800D03*
X104061900Y-95935800D03*
%TD*%
D12*
%TO.C,C5*%
X110652600Y-73177400D03*
X108752600Y-73177400D03*
%TD*%
D17*
%TO.C,Y2*%
X90881200Y-93938400D03*
X90881200Y-88738400D03*
%TD*%
D18*
%TO.C,U1*%
X97949200Y-83820000D03*
X97949200Y-85090000D03*
X97949200Y-86360000D03*
X97949200Y-87630000D03*
X105149200Y-87630000D03*
X105149200Y-86360000D03*
X105149200Y-85090000D03*
X105149200Y-83820000D03*
%TD*%
D19*
%TO.C,R3*%
X122730900Y-83007200D03*
X120905900Y-83007200D03*
%TD*%
D11*
%TO.C,R5*%
X125350900Y-82931000D03*
X127175900Y-82931000D03*
%TD*%
D19*
%TO.C,R1*%
X98169100Y-95631000D03*
X96344100Y-95631000D03*
%TD*%
D20*
%TO.C,U3*%
X96760600Y-89611200D03*
X96760600Y-90881200D03*
X96760600Y-92151200D03*
X96760600Y-93421200D03*
X101710600Y-93421200D03*
X101710600Y-92151200D03*
X101710600Y-90881200D03*
X101710600Y-89611200D03*
%TD*%
D21*
%TO.C,U2*%
X104648000Y-80365600D03*
X104648000Y-79095600D03*
X104648000Y-77825600D03*
X104648000Y-76555600D03*
X97448000Y-76555600D03*
X97448000Y-77825600D03*
X97448000Y-79095600D03*
X97448000Y-80365600D03*
%TD*%
D12*
%TO.C,C3*%
X122334300Y-88366600D03*
X120434300Y-88366600D03*
%TD*%
M02*
