%TF.GenerationSoftware,KiCad,Pcbnew,7.99.0-4047-gfc85112a72*%
%TF.CreationDate,2024-01-03T20:56:32+03:00*%
%TF.ProjectId,Prj 3 MCU DataLogger,50726a20-3320-44d4-9355-20446174614c,Version-1*%
%TF.SameCoordinates,Original*%
%TF.FileFunction,Plated,1,4,PTH,Drill*%
%TF.FilePolarity,Positive*%
%FSLAX46Y46*%
G04 Gerber Fmt 4.6, Leading zero omitted, Abs format (unit mm)*
G04 Created by KiCad (PCBNEW 7.99.0-4047-gfc85112a72) date 2024-01-03 20:56:32*
%MOMM*%
%LPD*%
G01*
G04 APERTURE LIST*
%TA.AperFunction,ViaDrill*%
%ADD10C,0.400000*%
%TD*%
%TA.AperFunction,ComponentDrill*%
%ADD11C,1.000000*%
%TD*%
G04 APERTURE END LIST*
D10*
X94919800Y-76174600D03*
X96647000Y-87833200D03*
X98526600Y-93167200D03*
X99060000Y-97053400D03*
X102311200Y-88341200D03*
X103428800Y-85191600D03*
X104876600Y-78232000D03*
X105181400Y-73482200D03*
X105918000Y-75514200D03*
X109055982Y-86811985D03*
X110794800Y-74295000D03*
X111328200Y-84124800D03*
X111353600Y-81483200D03*
X111379000Y-82804000D03*
X111633000Y-85572600D03*
X111812244Y-80594577D03*
X112014000Y-94386400D03*
X112242600Y-74625200D03*
X112420400Y-89839800D03*
X112547400Y-81940400D03*
X113182400Y-85013800D03*
X114401600Y-77571600D03*
X114491600Y-86055200D03*
X114801638Y-84999793D03*
X115722400Y-80877174D03*
X115900200Y-74904600D03*
X116179600Y-82905600D03*
X117957600Y-88987800D03*
X118440200Y-74853800D03*
X118731200Y-86998448D03*
X122961400Y-74853800D03*
X123164600Y-92735400D03*
X124104400Y-79171800D03*
X124333000Y-85267800D03*
X124417000Y-87172800D03*
X125399800Y-95326200D03*
X126314200Y-85191600D03*
X126847600Y-80848200D03*
X127584200Y-96215200D03*
X129565400Y-89763600D03*
X129819400Y-81407000D03*
X132029200Y-84607400D03*
X132257800Y-78257400D03*
D11*
%TO.C,BT1*%
X90855800Y-80192800D03*
X90855800Y-82732800D03*
%TO.C,J3*%
X94945200Y-99669600D03*
X97485200Y-99669600D03*
X100025200Y-99669600D03*
X102565200Y-99669600D03*
X105105200Y-99669600D03*
X107645200Y-99669600D03*
X110185200Y-99669600D03*
X112725200Y-99669600D03*
X115265200Y-99669600D03*
%TO.C,J2*%
X121564400Y-99491800D03*
X124104400Y-99491800D03*
X126644400Y-99491800D03*
X129184400Y-99491800D03*
%TO.C,J4*%
X134264400Y-78282800D03*
X134264400Y-80822800D03*
X134264400Y-83362800D03*
%TO.C,J1*%
X136474200Y-87569200D03*
X136474200Y-90109200D03*
X136474200Y-92649200D03*
X136474200Y-95189200D03*
%TO.C,J4*%
X136804400Y-78282800D03*
X136804400Y-80822800D03*
X136804400Y-83362800D03*
M02*
